<?xml version="1.0" standalone="no"?>
<!DOCTYPE svg PUBLIC "-//W3C//DTD SVG 20010904//EN"
 "http://www.w3.org/TR/2001/REC-SVG-20010904/DTD/svg10.dtd">
<svg version="1.0" xmlns="http://www.w3.org/2000/svg"
 width="800.000000pt" height="800.000000pt" viewBox="0 0 800.000000 800.000000"
 preserveAspectRatio="xMidYMid meet">

<g transform="translate(0.000000,800.000000) scale(0.100000,-0.100000)"
fill="#000000" stroke="none">
<path d="M7795 7370 c-4 -6 -11 -8 -16 -4 -6 3 -22 1 -37 -4 -15 -6 -36 -14
-47 -18 -11 -4 -23 -7 -27 -6 -3 1 -12 -6 -20 -15 -11 -14 -11 -16 3 -11 17 7
39 -8 39 -26 0 -6 -5 -5 -12 2 -7 7 -23 12 -36 12 -15 0 -21 4 -16 12 5 8 2 9
-10 5 -10 -4 -24 -7 -32 -7 -9 0 -12 -5 -8 -12 4 -6 3 -8 -3 -5 -15 9 -74 -13
-71 -27 4 -18 -25 -56 -42 -55 -10 0 -8 5 8 16 19 14 31 43 17 43 -3 0 -24
-12 -48 -27 -23 -15 -44 -28 -47 -28 -12 -2 -192 -115 -200 -126 -3 -3 -33
-21 -67 -39 -35 -17 -63 -35 -63 -39 0 -3 -18 -15 -40 -25 -22 -10 -37 -22
-35 -26 2 -3 -14 -17 -35 -31 -22 -13 -57 -39 -77 -57 -21 -19 -39 -29 -41
-23 -2 6 -8 8 -14 5 -6 -4 -5 -10 3 -15 11 -7 10 -11 -6 -22 -10 -8 -25 -13
-32 -10 -7 3 -13 0 -13 -6 0 -6 -5 -11 -11 -11 -6 0 -8 7 -5 16 3 8 2 12 -4 9
-13 -8 -13 -32 0 -37 6 -2 1 -9 -11 -16 -12 -8 -18 -9 -15 -3 4 6 1 9 -7 5 -8
-3 -14 -11 -13 -18 1 -15 -63 -90 -71 -83 -8 9 -55 -51 -49 -62 7 -11 -69 -81
-88 -81 -7 0 -25 -11 -40 -25 -15 -14 -32 -25 -37 -25 -6 0 -8 -4 -4 -9 6 -10
-13 -26 -21 -18 -6 6 23 55 46 78 9 9 30 24 46 32 42 22 69 53 53 63 -7 4 -18
-1 -26 -11 -7 -11 -13 -16 -13 -12 0 4 -10 2 -22 -4 -13 -7 -33 -14 -46 -15
-13 -2 -31 -9 -39 -16 -14 -11 -15 -10 -9 9 7 22 7 22 -38 -3 -26 -14 -44 -30
-40 -35 3 -5 1 -9 -5 -9 -5 0 -13 5 -16 11 -4 6 -23 8 -49 4 l-41 -6 35 20
c19 10 35 26 35 34 0 8 6 22 14 31 16 19 8 22 -11 4 -8 -7 -27 -21 -43 -30
-17 -9 -31 -26 -33 -37 -2 -12 -13 -26 -24 -32 -17 -9 -18 -13 -7 -20 8 -5 25
-9 38 -9 13 0 39 -11 57 -25 18 -14 36 -25 39 -25 11 0 85 -81 85 -93 0 -6
-15 3 -32 19 -57 53 -68 59 -68 40 0 -9 11 -21 25 -26 14 -5 25 -12 25 -15 0
-4 -4 -3 -10 0 -18 11 -11 -4 12 -25 12 -11 18 -23 14 -27 -4 -4 -10 -2 -14 4
-4 6 -32 14 -62 18 -30 4 -63 11 -72 17 -12 5 -18 5 -18 -1 0 -5 -9 -8 -20 -6
-11 2 -18 0 -15 -6 6 -9 -7 -13 -32 -10 -13 2 -12 -17 2 -38 5 -10 4 -16 -3
-19 -6 -2 -9 -9 -6 -17 4 -10 0 -12 -15 -8 -16 4 -21 1 -19 -13 2 -11 -1 -19
-7 -19 -5 0 -9 4 -7 8 1 5 -2 6 -8 2 -18 -11 -11 -35 10 -35 17 0 19 -3 8 -19
-17 -27 -67 -33 -92 -10 -11 10 -28 21 -38 25 -10 3 -18 11 -18 17 0 7 -15 19
-32 26 -18 8 -39 21 -46 28 -7 7 -20 13 -27 13 -8 0 -17 9 -20 20 -4 11 -11
18 -16 14 -5 -3 -6 -10 -3 -16 5 -7 2 -8 -7 -3 -8 4 1 -8 20 -28 19 -20 37
-34 40 -30 3 3 0 8 -6 10 -7 3 -13 9 -13 15 0 6 9 3 20 -7 11 -10 18 -21 15
-25 -2 -4 11 -22 30 -40 19 -19 35 -29 35 -22 0 16 11 15 34 -3 11 -8 17 -18
13 -21 -4 -4 -13 -1 -22 6 -8 7 -15 8 -15 3 0 -16 73 -64 80 -52 4 6 12 3 21
-7 12 -16 12 -17 -1 -9 -8 4 0 -7 18 -25 18 -18 30 -35 28 -37 -4 -4 -161 110
-176 127 -3 3 -34 28 -69 54 -50 39 -65 46 -72 35 -13 -21 -11 -32 5 -26 8 3
13 -1 12 -13 -1 -16 36 -67 94 -130 8 -9 26 -29 40 -45 l25 -28 -30 22 c-16
12 -41 37 -55 56 -27 37 -43 46 -33 18 6 -16 5 -16 -10 -4 -10 8 -21 11 -24 7
-4 -4 -1 -12 7 -17 11 -8 9 -9 -10 -4 -21 5 -18 -1 20 -35 29 -25 39 -40 29
-40 -22 0 -49 -32 -31 -37 6 -3 12 -9 12 -15 0 -6 -7 -5 -16 3 -8 7 -13 21
-10 31 3 14 1 17 -8 9 -9 -7 -16 -7 -24 1 -7 7 -12 8 -12 4 0 -17 85 -101 100
-98 10 1 16 -5 17 -18 2 -27 -8 -25 -48 10 -19 16 -38 30 -42 30 -5 0 -5 5 -1
12 5 7 0 9 -14 6 -12 -4 -28 1 -40 12 -28 26 -81 52 -93 45 -5 -4 -16 -1 -24
5 -12 10 -15 9 -15 -4 0 -10 -5 -14 -11 -10 -23 14 -131 20 -151 8 -12 -8 27
-29 48 -25 6 0 16 -10 22 -25 9 -18 9 -23 1 -18 -7 4 -9 0 -5 -14 5 -15 2 -22
-11 -25 -15 -4 -15 -5 -2 -6 9 0 20 -12 23 -26 4 -14 11 -25 16 -25 15 0 12
-43 -5 -67 -10 -14 -12 -24 -5 -28 5 -3 10 -1 10 4 0 6 4 11 10 11 5 0 7 -6 4
-14 -4 -11 1 -13 18 -10 18 3 17 2 -4 -7 -16 -6 -28 -15 -28 -21 0 -6 7 -8 15
-4 8 3 15 2 15 -3 0 -18 -14 -19 -48 0 -45 23 -52 24 -52 3 0 -12 -6 -15 -21
-11 -12 3 -19 1 -17 -5 2 -6 15 -13 28 -15 36 -5 74 -33 62 -45 -7 -7 -18 -6
-33 3 -29 15 -58 19 -65 7 -3 -4 0 -8 7 -8 7 0 10 -2 7 -5 -11 -11 -58 15 -58
32 -1 17 -1 17 -14 1 -16 -22 -46 -23 -46 -3 0 9 -10 19 -22 24 -27 10 -39 4
-18 -10 13 -8 13 -10 0 -19 -13 -8 -12 -10 3 -10 9 0 17 -5 17 -12 0 -6 3 -9
6 -5 4 3 13 0 21 -8 19 -19 33 -19 33 0 0 18 16 20 26 3 4 -6 2 -14 -4 -16 -7
-2 -10 -13 -6 -29 5 -20 4 -24 -7 -19 -8 3 -22 9 -31 12 -10 4 -18 10 -18 15
0 5 -7 9 -16 9 -19 0 -64 40 -64 57 0 6 -13 16 -30 22 -16 5 -30 15 -30 22 0
6 -7 9 -15 5 -8 -3 -15 -1 -15 5 0 6 -5 7 -10 4 -6 -4 -17 -2 -25 5 -19 16
-95 15 -106 -1 -12 -19 -11 -39 1 -39 6 0 10 5 10 10 0 6 5 10 11 10 6 0 9 -7
5 -15 -3 -8 -1 -15 5 -15 16 0 114 -71 114 -83 0 -7 4 -15 9 -18 15 -12 -5
-30 -27 -24 -12 2 -16 2 -9 -1 24 -11 12 -23 -18 -17 -18 3 -30 1 -30 -5 0
-13 36 -26 50 -17 5 3 10 2 10 -4 0 -5 9 -12 19 -16 10 -3 21 -15 24 -26 5
-20 5 -20 -13 -4 -10 9 -23 14 -29 11 -5 -4 -13 -2 -16 4 -4 6 -16 8 -28 4
-12 -3 -18 -3 -14 2 4 5 -9 13 -30 19 -21 7 -37 17 -36 23 4 17 -8 14 -37 -8
-14 -11 -30 -20 -36 -20 -14 0 -14 -30 0 -30 12 0 89 -51 94 -63 2 -4 17 -14
33 -22 16 -9 29 -22 29 -30 0 -22 -50 -1 -95 40 -21 19 -41 35 -46 35 -5 0
-26 9 -48 21 -29 15 -38 25 -34 36 5 13 2 15 -15 11 -14 -4 -19 -2 -15 8 9 24
-7 37 -26 20 -16 -15 -19 -15 -35 2 -12 15 -14 25 -7 43 l10 24 0 -26 c1 -36
9 -41 32 -18 10 10 30 19 43 19 14 0 37 5 52 11 l28 10 -24 13 c-26 13 -70 5
-98 -17 -17 -13 -37 12 -22 27 6 6 10 16 10 23 0 11 -3 11 -14 1 -8 -7 -14
-15 -13 -18 1 -3 -2 -15 -7 -27 -6 -20 -10 -21 -29 -10 -12 7 -23 13 -25 14
-2 0 4 15 13 33 9 18 14 35 11 38 -20 19 -207 22 -255 4 -20 -8 -44 -14 -53
-15 -10 -1 -18 -5 -18 -10 0 -4 -4 -6 -9 -2 -10 5 -26 -13 -19 -21 3 -2 26 0
53 5 38 7 64 5 119 -10 39 -11 86 -21 104 -23 18 -2 39 -10 47 -16 8 -7 15 -9
15 -4 0 4 4 4 9 -1 5 -6 12 -32 15 -60 10 -83 20 -108 47 -116 14 -3 47 -23
73 -43 27 -20 62 -44 77 -52 16 -8 29 -19 29 -25 0 -6 -12 -1 -26 10 -15 12
-32 21 -38 21 -6 0 1 -8 17 -18 38 -24 36 -44 -3 -30 -17 5 -38 7 -48 3 -15
-6 -13 -10 16 -36 43 -38 43 -58 0 -50 -42 8 -78 30 -60 37 6 3 12 10 12 16 0
6 -6 6 -15 -2 -11 -9 -21 -9 -45 1 -16 8 -30 17 -30 20 0 4 -6 9 -14 12 -11 4
-13 -1 -11 -24 2 -16 0 -27 -5 -24 -5 3 -11 -4 -15 -15 -6 -19 -8 -19 -48 8
-43 28 -60 44 -78 75 -8 13 -4 22 16 41 19 18 22 25 12 29 -26 10 -29 56 -7
93 14 22 19 41 15 55 -7 22 -60 79 -73 79 -4 0 0 -6 8 -13 8 -7 15 -16 16 -22
0 -5 4 -26 8 -46 6 -28 3 -48 -12 -82 -19 -42 -42 -69 -42 -49 0 5 9 30 21 56
17 39 19 52 9 81 -6 18 -17 38 -24 45 -12 9 -13 1 -9 -47 2 -37 1 -53 -5 -44
-7 10 -16 5 -37 -23 -15 -20 -31 -33 -36 -30 -10 6 -91 -16 -99 -27 -9 -12
-110 -23 -110 -12 0 5 -10 9 -22 8 -13 -1 -26 3 -30 9 -4 6 -8 -6 -8 -26 0
-39 -30 -104 -58 -125 -9 -7 -34 -13 -56 -13 -27 0 -36 -3 -27 -9 9 -6 3 -8
-20 -7 -23 1 -37 8 -44 22 -16 32 -43 56 -50 44 -3 -5 -3 -10 2 -10 7 0 12
-22 16 -77 1 -13 5 -23 10 -23 14 0 7 -48 -9 -54 -9 -3 -12 -11 -8 -18 4 -7
-2 -5 -13 5 -22 19 -33 22 -33 6 0 -5 4 -7 10 -4 6 3 10 2 10 -3 0 -6 -7 -13
-16 -16 -8 -3 -12 -2 -9 4 3 6 2 10 -3 10 -11 0 -33 70 -26 82 3 4 1 8 -4 8
-5 0 -12 13 -15 29 -7 36 -34 48 -54 24 -10 -13 -16 -15 -19 -5 -3 6 -10 12
-15 12 -6 0 -8 -4 -5 -9 3 -5 -1 -12 -10 -15 -11 -4 -14 -13 -10 -29 4 -12 9
-40 12 -62 3 -21 7 -43 10 -47 10 -16 -9 -56 -32 -68 -26 -15 -36 -36 -38 -91
-2 -40 -20 -69 -43 -69 -8 0 -11 -4 -8 -10 3 -5 -1 -10 -10 -10 -10 0 -13 -5
-9 -12 4 -7 4 -10 -1 -6 -4 4 -14 3 -22 -4 -10 -8 -17 -8 -25 0 -7 7 -20 12
-30 12 -10 0 -18 7 -18 15 0 9 -9 15 -25 15 -14 0 -25 4 -25 9 0 5 -9 11 -19
14 -14 3 -18 1 -14 -9 3 -8 -1 -14 -10 -14 -8 0 -17 -7 -21 -15 -3 -8 -1 -15
4 -15 6 0 10 -5 10 -12 0 -6 8 -21 17 -32 10 -12 14 -18 9 -14 -4 4 -21 -6
-36 -22 -15 -16 -31 -26 -34 -23 -3 4 -6 1 -6 -5 0 -6 -13 -17 -30 -26 -16 -8
-30 -10 -30 -5 0 5 -10 0 -22 -11 -13 -10 -32 -26 -43 -35 -19 -15 -16 -15 35
-9 30 3 71 12 92 19 30 10 35 10 31 -2 -4 -11 0 -11 22 -3 37 14 87 12 109 -5
23 -17 56 -20 56 -4 0 5 5 7 10 4 6 -4 17 -1 25 5 11 9 15 9 15 1 0 -6 -4 -11
-10 -11 -19 0 -10 -16 10 -17 16 -1 20 3 15 16 -4 14 1 20 26 25 17 3 41 6 53
6 20 -1 20 -1 3 -15 -11 -7 -26 -11 -35 -8 -15 4 -15 3 -2 -6 8 -6 24 -11 35
-11 32 0 2 -21 -36 -24 -41 -4 -79 -15 -79 -24 0 -9 -150 -8 -170 1 -8 3 -32
10 -52 16 -36 9 -39 7 -77 -30 -34 -34 -37 -41 -22 -50 15 -10 15 -10 -1 -5
-9 3 -18 0 -21 -7 -2 -7 -22 -11 -51 -9 -37 1 -47 -1 -43 -12 4 -10 -20 -27
-77 -55 -46 -23 -86 -41 -90 -41 -4 0 -14 -7 -22 -15 -18 -17 -9 -39 12 -31 8
3 14 1 14 -4 0 -9 -31 -22 -60 -25 -8 -1 -53 -8 -100 -15 -47 -6 -135 -13
-196 -15 -61 -2 -125 -10 -143 -17 -31 -13 -30 -13 37 -14 38 -1 93 -7 123
-14 30 -6 83 -14 119 -16 36 -3 91 -12 123 -20 32 -8 80 -14 105 -15 53 0 76
-8 80 -27 2 -9 -5 -9 -27 3 -22 11 -36 12 -53 5 -19 -8 -20 -9 -3 -8 31 4 101
-41 112 -70 9 -24 10 -22 9 20 -1 33 -6 49 -16 51 -8 2 28 6 82 8 53 2 94 1
91 -3 -2 -5 0 -8 6 -8 5 0 11 5 13 11 3 8 20 7 60 -2 51 -12 54 -14 35 -24
-12 -7 -33 -10 -47 -9 -73 9 -130 11 -135 6 -3 -4 -24 -5 -45 -3 -26 2 -40 -2
-40 -9 0 -7 7 -10 14 -7 10 4 13 1 10 -8 -3 -7 1 -26 9 -41 l14 -28 1 27 c0
15 -5 24 -11 20 -5 -3 -8 0 -5 8 2 8 17 15 32 17 18 2 26 0 21 -7 -3 -6 -2
-11 4 -11 5 0 11 6 13 12 3 9 32 13 96 13 51 0 92 -3 92 -6 0 -3 6 -6 13 -6
16 0 127 -54 127 -63 0 -9 71 -33 78 -25 4 3 0 10 -8 15 -12 8 -11 10 7 10 12
0 24 -6 26 -12 4 -9 8 -9 14 -3 4 6 65 10 138 11 221 1 274 7 281 27 6 20 52
16 66 -5 7 -12 12 -4 9 14 -1 11 65 29 82 22 10 -3 17 -2 17 4 0 5 10 9 23 8
12 0 22 -7 22 -15 0 -10 24 -22 65 -34 102 -30 112 -37 45 -31 -130 12 -426 2
-520 -16 -27 -6 -74 -12 -102 -14 -29 -3 -62 -7 -73 -11 -11 -4 -20 -2 -20 4
0 18 -17 13 -46 -14 -15 -14 -28 -25 -30 -25 -2 0 -10 12 -18 28 -8 15 -15 20
-16 12 0 -8 -16 -20 -35 -26 -37 -12 -54 -2 -68 39 -4 9 -11 17 -16 17 -6 0
-8 -7 -5 -15 3 -8 -1 -21 -9 -30 -20 -19 -31 -19 -23 0 3 8 1 15 -3 15 -5 0
-11 -5 -13 -11 -3 -9 -9 -9 -25 0 -16 8 -24 8 -29 0 -4 -8 -9 -7 -16 2 -7 11
-11 11 -15 2 -2 -7 -13 -13 -24 -13 -12 0 -17 -5 -12 -16 3 -8 12 -13 21 -9
13 5 13 3 1 -11 -11 -13 -25 -15 -72 -11 -32 3 -64 10 -71 17 -10 7 -16 8 -20
1 -4 -6 -14 -4 -26 6 -10 9 -17 20 -14 25 3 4 -2 8 -11 8 -12 0 -15 6 -10 20
3 11 3 21 -2 21 -38 6 -53 5 -50 -5 2 -6 14 -11 25 -10 17 0 19 -2 11 -13 -15
-17 -13 -17 -45 12 -15 14 -23 25 -18 25 5 0 2 5 -6 10 -8 5 -19 10 -25 10 -5
0 -4 -4 4 -9 9 -6 4 -8 -15 -8 -16 0 -23 2 -16 4 20 8 14 20 -10 20 -54 -1
-78 4 -78 14 0 5 5 7 12 3 7 -4 8 -3 4 5 -4 6 -11 9 -15 6 -5 -2 -23 0 -41 5
-28 8 -36 6 -51 -11 -26 -30 -119 -18 -119 16 0 7 6 15 13 18 10 4 10 7 0 18
-10 9 -13 10 -13 1 0 -7 -4 -12 -10 -12 -5 0 -10 7 -10 16 0 12 -6 15 -26 10
-20 -5 -25 -4 -21 7 4 10 -1 13 -21 9 -21 -4 -23 -7 -10 -16 13 -10 31 -66 22
-66 -2 0 -13 9 -23 19 -14 14 -16 21 -8 24 7 3 -12 4 -41 4 -29 -1 -56 3 -60
9 -4 6 -27 11 -50 10 -24 -1 -46 2 -48 5 -8 14 31 34 65 34 25 0 36 4 36 15 0
21 -39 24 -55 5 -7 -8 -18 -15 -25 -15 -7 0 -16 -7 -19 -16 -4 -9 -13 -14 -22
-10 -8 3 -13 2 -10 -3 3 -5 -11 -16 -32 -25 -33 -15 -28 -16 18 -5 8 2 18 9
23 14 4 6 12 3 21 -8 7 -9 41 -35 75 -57 33 -22 61 -46 61 -55 0 -8 6 -15 14
-15 8 0 23 -11 34 -25 11 -14 25 -25 31 -25 6 0 11 -4 11 -10 0 -5 11 -12 25
-16 14 -3 25 -12 25 -20 0 -16 -17 -19 -22 -4 -1 5 -26 11 -55 14 -29 3 -70
14 -92 24 -36 18 -41 18 -57 3 -16 -15 -16 -15 -9 4 13 35 10 47 -12 56 -14 5
-23 5 -23 -1 0 -5 -21 -12 -46 -16 -43 -6 -45 -8 -25 -18 32 -18 16 -25 -32
-14 -57 13 -97 16 -91 6 11 -17 -10 -7 -27 14 l-19 21 0 -27 c0 -16 7 -29 18
-33 9 -3 28 -18 42 -33 14 -15 32 -30 40 -33 8 -4 4 -4 -10 -1 -14 3 -32 6
-41 7 -9 1 -15 7 -12 14 3 7 0 13 -6 13 -6 0 -11 -4 -11 -9 0 -12 -39 -21 -45
-11 -3 5 1 11 7 13 8 4 7 6 -3 6 -9 1 -30 8 -45 16 -26 13 -29 13 -35 -3 -9
-22 -4 -26 56 -47 85 -31 85 -47 0 -24 -22 6 -46 19 -55 28 -8 10 -23 20 -33
24 -9 3 -17 11 -17 16 0 6 -14 17 -30 26 -17 9 -30 11 -30 5 0 -5 -5 -10 -11
-10 -8 0 -8 4 0 14 9 11 9 15 -1 19 -7 2 -9 8 -5 13 4 5 12 2 16 -5 9 -15 31
-7 31 11 0 6 -3 9 -6 5 -3 -3 -17 -2 -31 4 -15 5 -22 5 -18 0 3 -5 -4 -12 -15
-16 -11 -3 -20 -15 -20 -26 0 -10 -4 -19 -10 -19 -5 0 -10 9 -10 20 0 11 -7
20 -15 20 -17 0 -9 -29 14 -47 14 -11 14 -12 -3 -13 -10 0 -25 -8 -32 -17 -12
-17 -13 -16 -14 6 0 34 -9 21 -14 -22 -4 -30 -2 -35 12 -30 13 5 11 0 -6 -22
-15 -19 -19 -32 -12 -39 13 -13 13 -49 0 -41 -6 3 -7 -1 -4 -9 3 -9 11 -16 17
-16 5 0 3 -8 -5 -17 -9 -10 -13 -25 -10 -33 4 -12 2 -13 -10 -3 -11 10 -17 10
-26 1 -7 -7 -12 -9 -12 -4 0 4 -11 -6 -25 -21 -19 -22 -24 -24 -25 -10 0 9 5
17 10 17 16 0 12 17 -5 24 -10 3 -15 1 -13 -7 1 -6 -4 -23 -12 -37 -21 -38
-21 -92 1 -113 11 -10 25 -15 32 -11 9 6 9 4 -1 -8 -7 -9 -12 -20 -10 -24 1
-5 -3 -19 -10 -32 -7 -12 -10 -27 -7 -32 7 -12 -26 -81 -38 -77 -5 1 -8 7 -8
12 0 10 -29 30 -39 27 -3 0 -8 -11 -12 -24 -5 -14 -6 -3 -4 29 2 29 0 50 -4
48 -4 -2 -5 7 -2 20 7 38 -12 30 -37 -15 -14 -25 -27 -38 -34 -34 -7 4 -9 4
-5 -1 4 -4 0 -22 -9 -39 -9 -17 -18 -38 -20 -46 -1 -8 -5 -30 -9 -47 -6 -33
-18 -40 -43 -24 -17 11 -8 39 40 123 22 36 39 71 39 77 0 6 5 11 11 11 8 0 7
5 -1 15 -12 14 -15 14 -31 -1 -11 -10 -19 -22 -19 -28 0 -6 5 -3 11 7 13 22
30 22 22 0 -9 -23 -33 -48 -33 -34 0 22 -22 10 -70 -40 -28 -28 -50 -60 -50
-70 0 -11 -5 -19 -11 -19 -5 0 -8 4 -5 9 11 17 -43 8 -63 -10 -15 -14 -26 -16
-49 -9 -17 4 -33 6 -36 3 -8 -8 -76 18 -76 29 0 7 -14 8 -35 5 -20 -3 -33 -2
-30 3 3 5 -5 10 -17 12 -18 2 -23 9 -21 31 1 21 -2 27 -12 23 -33 -12 -85 -18
-85 -8 0 5 -14 19 -31 30 -29 18 -36 18 -99 6 -38 -7 -81 -21 -97 -30 -42 -26
-103 -86 -97 -96 3 -4 -1 -8 -8 -8 -15 -1 -44 -42 -150 -211 -85 -139 -112
-194 -104 -215 8 -20 13 -19 106 36 47 28 113 59 147 71 121 40 394 79 422 60
26 -17 -7 -87 -76 -162 -70 -77 -110 -147 -119 -211 l-6 -43 26 40 c14 22 33
55 42 73 21 38 34 41 34 9 0 -20 5 -24 30 -24 37 0 63 -23 54 -46 -3 -9 -10
-17 -16 -17 -5 0 -6 5 -3 10 3 5 2 10 -3 10 -14 0 -25 -34 -13 -38 5 -2 7 -10
4 -19 -4 -11 -2 -14 5 -9 12 7 12 -5 -3 -91 -5 -30 -11 -40 -22 -36 -7 3 -13
2 -11 -3 1 -5 -3 -19 -10 -32 -7 -12 -10 -32 -6 -44 4 -14 2 -18 -5 -14 -6 4
-11 3 -11 -3 0 -6 -18 -29 -40 -51 -29 -30 -40 -49 -40 -71 0 -24 -4 -30 -15
-25 -9 3 -15 0 -15 -9 0 -8 -4 -15 -10 -15 -5 0 -10 -5 -10 -12 0 -6 -19 -28
-42 -49 -38 -36 -42 -37 -54 -21 -12 15 -12 14 -7 -8 6 -23 5 -24 -10 -11 -15
12 -17 12 -11 -3 5 -12 2 -17 -7 -15 -8 2 -48 -13 -89 -33 -41 -20 -87 -39
-102 -42 -14 -2 -36 -10 -48 -16 -12 -6 -24 -9 -27 -6 -3 3 -22 -6 -42 -19
-19 -14 -44 -25 -53 -25 -21 0 -25 -36 -5 -43 6 -2 28 0 47 5 19 5 109 13 200
18 91 5 208 16 260 25 125 20 242 28 258 17 9 -6 15 -56 21 -160 12 -207 32
-248 166 -323 51 -28 105 -79 84 -79 -6 0 -9 -32 -8 -89 2 -50 6 -88 11 -85 5
3 8 14 6 24 -2 11 0 19 5 20 39 2 40 1 23 -25 -18 -27 -21 -39 -7 -31 11 7 0
-47 -11 -55 -6 -4 -8 -14 -6 -23 3 -15 6 -15 26 4 13 12 25 20 27 19 12 -14 0
-109 -15 -109 -4 0 -20 -20 -36 -45 -15 -25 -33 -44 -39 -41 -13 5 -36 -20
-27 -29 4 -4 -4 -4 -18 0 -22 7 -23 6 -11 -9 12 -14 11 -16 -3 -16 -9 0 -16
-4 -16 -10 0 -5 -6 -10 -13 -10 -20 0 -137 -128 -137 -150 0 -19 10 -16 108
34 106 55 245 148 311 210 45 42 101 126 151 225 45 90 72 114 122 109 32 -3
33 -4 32 -49 l0 -46 23 34 c13 18 32 43 43 55 11 12 20 28 20 36 0 7 6 12 13
9 16 -6 11 -45 -10 -77 -10 -14 -16 -28 -15 -32 1 -5 -4 -8 -10 -8 -15 0 -40
-48 -33 -61 3 -4 -3 -10 -14 -14 -11 -3 -27 -18 -36 -33 -10 -15 -36 -52 -59
-82 -22 -30 -45 -61 -51 -69 -5 -7 -22 -26 -37 -41 -16 -16 -28 -31 -28 -36 0
-4 -10 -21 -23 -38 -49 -65 -82 -156 -57 -156 10 0 158 140 416 395 105 104
127 132 164 205 58 116 62 120 129 120 98 0 124 -27 185 -183 32 -83 36 -103
36 -186 0 -76 -5 -104 -26 -159 -14 -37 -35 -73 -45 -81 -10 -7 -19 -19 -19
-26 0 -6 -25 -39 -55 -72 -54 -60 -69 -93 -41 -93 18 0 138 83 210 145 345
297 361 323 375 600 6 110 12 159 25 183 l17 32 162 -1 c154 -2 166 -1 230 25
77 30 97 32 140 12 55 -25 129 -56 133 -56 2 0 4 6 4 14 0 8 -18 29 -40 46
-56 44 -54 72 8 133 26 26 62 51 80 56 18 5 106 7 197 4 116 -4 165 -3 165 5
0 6 -24 23 -52 39 -57 30 -71 60 -48 103 9 16 8 22 -4 26 -29 11 -115 -18
-171 -57 -87 -61 -110 -70 -140 -59 -32 12 -72 13 -79 1 -3 -4 0 -22 7 -40 10
-27 9 -34 -9 -51 -25 -25 -193 -83 -291 -100 -67 -12 -74 -12 -93 5 -26 24
-23 33 63 180 38 66 77 134 87 150 30 52 126 219 141 244 8 14 51 41 106 66
125 59 342 203 390 260 51 60 133 203 133 232 0 13 5 23 11 23 5 0 7 -6 3 -12
-4 -7 17 8 47 33 46 39 170 127 357 253 59 41 107 96 133 155 12 28 32 70 46
93 13 24 37 72 54 108 49 106 80 164 103 189 11 13 73 58 136 99 148 96 277
199 326 259 21 27 93 104 159 173 66 69 153 164 193 212 39 48 99 111 133 140
33 29 172 164 307 299 294 292 401 383 675 568 27 18 88 71 137 118 49 47 123
108 164 137 135 92 242 210 342 374 26 42 72 115 102 162 31 47 66 101 79 121
28 42 31 60 4 28 l-18 -23 0 27 c0 16 5 27 13 27 8 0 14 7 14 15 0 8 5 15 11
15 6 0 17 6 25 14 11 11 11 16 1 19 -7 3 -6 6 5 6 11 1 21 18 32 53 8 29 13
54 11 56 -2 3 -7 -6 -10 -20 -3 -13 -19 -29 -35 -36 -17 -8 -30 -22 -32 -35
-2 -14 -11 -23 -25 -25 -15 -2 -23 -10 -23 -22 0 -10 -5 -22 -10 -25 -6 -4 -7
-12 -4 -18 4 -7 4 -9 -1 -5 -4 4 -15 -2 -25 -14 -9 -12 -22 -18 -28 -14 -16
10 -15 29 1 23 7 -3 19 4 25 14 10 16 9 19 -3 19 -8 0 -15 -4 -15 -10 0 -5 -8
-10 -19 -10 -10 0 -29 -8 -42 -18 -13 -11 -46 -32 -74 -47 -27 -16 -52 -32
-55 -35 -6 -6 -23 -16 -197 -116 -122 -70 -170 -104 -146 -104 5 0 13 3 17 8
4 4 11 7 14 7 4 1 27 12 52 25 25 13 48 23 53 22 4 -1 7 3 7 10 0 6 2 9 5 6 9
-8 -6 -38 -16 -32 -5 3 -21 -4 -35 -15 -15 -12 -31 -21 -36 -21 -5 0 -16 -6
-23 -14 -8 -8 -27 -12 -45 -10 -25 3 -29 1 -18 -9 7 -7 32 -13 56 -14 32 -1
42 2 42 14 0 13 5 12 25 -7 14 -13 27 -21 30 -18 3 3 -1 11 -10 18 -8 7 -15
17 -15 23 0 6 3 7 7 4 3 -4 12 -2 20 4 7 7 27 13 44 15 25 3 30 1 25 -12 -3
-8 -2 -12 4 -9 15 9 12 -11 -4 -24 -11 -9 -15 -9 -18 1 -3 8 -12 5 -28 -10
-13 -12 -32 -22 -41 -22 -10 0 -23 -8 -29 -17 -10 -16 -10 -15 -5 4 5 18 2 20
-15 16 -11 -3 -20 -10 -20 -15 0 -5 -4 -6 -10 -3 -5 3 -10 3 -10 -2 0 -4 -12
-16 -26 -26 -24 -18 -26 -18 -45 -1 -18 16 -19 16 -19 -1 0 -14 -3 -15 -15 -5
-8 7 -12 16 -9 21 9 15 42 10 52 -6 7 -14 10 -13 25 3 16 17 16 20 -4 40 -18
20 -22 21 -35 7 -20 -19 -21 -19 -19 5 2 29 44 58 360 244 39 22 75 44 80 49
6 4 64 43 130 87 133 87 214 159 231 205 29 77 36 81 -94 -57 -19 -21 -40 -38
-46 -38 -14 0 -118 -50 -126 -60 -3 -4 -19 -13 -37 -20 -17 -8 -29 -18 -27
-22 3 -4 -2 -8 -10 -8 -9 0 -16 -4 -16 -9 0 -5 -15 -13 -32 -17 -18 -3 -40
-14 -48 -24 -8 -9 -21 -15 -29 -12 -8 3 -11 0 -7 -7 5 -7 1 -9 -8 -5 -9 3 -16
1 -16 -5 0 -6 -4 -11 -9 -11 -5 0 -24 -6 -42 -14 -19 -8 -37 -15 -41 -15 -4
-1 -19 -12 -32 -26 -19 -19 -32 -23 -60 -20 -19 3 -38 0 -41 -5 -3 -6 -23 -10
-44 -10 -20 0 -46 -7 -57 -15 -17 -14 -15 -14 26 -9 25 3 62 10 83 15 20 6 42
7 47 4 5 -3 30 6 55 20 54 32 80 24 33 -11 -68 -49 -132 -89 -141 -86 -5 2
-16 -6 -24 -18 -8 -11 -23 -20 -34 -20 -10 0 -19 -5 -19 -11 0 -14 -52 -7 -58
9 -2 7 6 12 22 12 14 0 26 4 26 9 0 5 12 12 27 16 15 3 39 15 54 26 15 10 39
19 53 19 14 0 26 5 26 10 0 6 -8 10 -19 10 -33 0 -81 -12 -76 -19 2 -4 -9 -5
-26 -3 -21 3 -29 0 -29 -10 0 -13 -12 -21 -62 -46 -5 -2 -8 1 -8 6 0 5 11 13
25 16 14 4 25 13 25 22 0 8 -4 12 -10 9 -5 -3 -10 -1 -10 4 0 6 -5 11 -11 11
-6 0 -9 -7 -6 -14 4 -10 1 -13 -8 -9 -12 4 -8 15 17 49 17 24 35 44 40 44 5 0
16 7 24 15 9 8 12 15 9 15 -4 0 17 17 46 37 79 53 143 103 134 103 -5 0 0 9
10 20 18 20 18 20 -21 6 -22 -7 -57 -25 -78 -40 -21 -14 -47 -26 -58 -26 -10
0 -31 -6 -46 -14 -47 -25 -132 -93 -125 -100 4 -4 0 -4 -10 0 -11 4 -17 1 -17
-7 0 -10 -3 -10 -12 -1 -6 6 -10 13 -7 15 32 27 177 115 257 156 56 29 102 57
102 62 0 5 6 9 13 9 6 0 25 11 41 25 16 14 26 25 23 25 -4 0 -59 -23 -124 -51
-171 -73 -229 -107 -341 -200 -7 -6 -16 -8 -19 -5 -3 3 5 14 18 25 13 10 35
29 49 41 59 52 279 163 439 222 31 11 61 25 67 29 28 22 106 59 115 54 5 -4 9
-1 9 4 0 6 9 11 19 11 11 0 23 5 26 10 4 6 10 8 15 5 5 -3 15 3 22 13 16 23
63 16 48 -7 -7 -12 -11 -13 -24 -1 -14 11 -16 11 -11 -2 4 -10 -5 -20 -27 -30
-59 -26 -83 -39 -65 -34 15 5 16 3 7 -15 -11 -20 -11 -20 20 -4 26 14 34 14
48 3 13 -11 15 -11 10 3 -5 13 0 18 20 22 28 5 56 -9 46 -24 -3 -5 -1 -9 5 -9
5 0 13 5 16 10 3 6 17 7 31 4 14 -4 24 -2 24 5 0 6 7 8 15 5 10 -4 15 0 16 12
0 11 3 14 6 6 3 -9 12 -7 32 8 16 11 31 17 33 14 10 -9 28 81 32 156 6 93 18
141 57 227 17 38 33 77 35 88 4 19 -13 85 -21 85 -6 0 -79 -43 -85 -50 -3 -3
-25 -18 -50 -33 -25 -15 -56 -35 -70 -44 -22 -16 -24 -16 -12 -1 7 9 65 49
129 89 126 79 243 172 243 195 0 16 -16 19 -25 4z m-85 -50 c0 -5 -5 -10 -11
-10 -5 0 -7 5 -4 10 3 6 8 10 11 10 2 0 4 -4 4 -10z m-100 -52 c0 -18 -2 -20
-9 -8 -6 8 -7 18 -5 22 9 14 14 9 14 -14z m50 18 c0 -2 -7 -7 -16 -10 -8 -3
-12 -2 -9 4 6 10 25 14 25 6z m-213 -104 c-9 -2 -15 -7 -12 -12 3 -4 -36 -49
-85 -100 -50 -51 -90 -88 -90 -82 0 11 56 81 99 123 14 14 39 40 54 58 17 19
32 29 40 24 8 -5 7 -9 -6 -11z m211 -33 c-13 -3 -22 -10 -21 -15 0 -5 -6 -15
-14 -23 -13 -12 -14 -11 -8 9 6 19 4 22 -10 16 -15 -5 -16 -4 -6 8 7 8 22 16
34 18 13 2 21 10 19 18 -1 10 3 8 13 -5 15 -19 14 -20 -7 -26z m-71 -35 c4
-14 -15 -39 -24 -31 -4 5 -1 12 7 18 13 8 13 10 0 20 -12 9 -12 10 -1 7 8 -3
16 -8 18 -14z m-166 -58 c-6 -7 -30 -26 -54 -41 -23 -15 -64 -53 -92 -85 -27
-32 -54 -55 -59 -50 -9 9 1 32 12 27 4 -2 27 19 52 47 46 53 181 151 141 102z
m138 -76 c-34 -29 -80 -53 -87 -45 -8 8 45 48 66 51 8 2 19 7 25 13 6 6 13 9
15 6 3 -2 -6 -14 -19 -25z m-329 4 c0 -8 -4 -12 -10 -9 -5 3 -10 10 -10 16 0
5 5 9 10 9 6 0 10 -7 10 -16z m-90 -64 c-8 -5 -19 -10 -25 -10 -5 0 -3 5 5 10
8 5 20 10 25 10 6 0 3 -5 -5 -10z m450 5 c0 -10 -43 -26 -80 -31 -24 -3 -40
-1 -40 6 0 5 15 10 33 10 17 0 39 5 47 10 16 10 40 13 40 5z m-490 -25 c0 -5
-2 -10 -4 -10 -3 0 -8 5 -11 10 -3 6 -1 10 4 10 6 0 11 -4 11 -10z m490 -4 c0
-3 -4 -8 -10 -11 -5 -3 -10 -1 -10 4 0 6 5 11 10 11 6 0 10 -2 10 -4z m-510
-16 c0 -5 -2 -10 -4 -10 -3 0 -8 5 -11 10 -3 6 -1 10 4 10 6 0 11 -4 11 -10z
m106 -9 c0 -16 -3 -17 -14 -9 -12 10 -7 19 13 28 1 0 1 -9 1 -19z m149 0 c3
-6 -7 -21 -22 -35 -19 -18 -24 -29 -17 -36 11 -11 44 -3 44 11 0 4 7 6 15 3 8
-4 12 -10 9 -15 -3 -5 -10 -7 -15 -4 -5 4 -9 -1 -9 -10 0 -9 -5 -13 -11 -10
-5 4 -27 -11 -47 -32 -44 -47 -97 -85 -106 -76 -3 3 -6 1 -6 -6 0 -7 -4 -10
-9 -7 -5 3 -11 0 -14 -7 -3 -7 -22 -21 -43 -31 -22 -10 -84 -39 -139 -65
l-100 -47 -17 20 c-10 12 -17 16 -18 9 0 -7 -5 -13 -11 -13 -6 0 -8 9 -4 21 5
16 4 19 -6 14 -9 -6 -11 -4 -6 8 4 11 2 14 -9 10 -8 -3 -14 1 -14 10 0 8 24
30 54 48 30 19 57 42 60 53 3 12 10 16 20 13 10 -4 13 -1 10 8 -4 9 4 19 20
26 14 7 26 16 26 20 0 5 7 6 15 3 8 -4 15 -1 15 5 0 6 6 11 14 11 8 0 17 7 20
16 3 9 12 14 20 11 8 -3 16 2 19 15 3 11 10 17 16 14 5 -4 12 -2 16 4 11 18
23 11 35 -22 11 -29 13 -30 19 -13 3 11 15 21 27 22 11 1 34 7 50 13 16 6 31
11 34 12 3 0 11 4 18 10 6 6 12 7 12 2 0 -5 5 -1 11 9 11 19 15 21 24 8z
m-175 -21 c0 -5 -4 -10 -10 -10 -5 0 -10 5 -10 10 0 6 5 10 10 10 6 0 10 -4
10 -10z m290 6 c0 -3 -4 -8 -10 -11 -5 -3 -10 -1 -10 4 0 6 5 11 10 11 6 0 10
-2 10 -4z m39 -19 c-9 -7 -14 -19 -12 -27 4 -13 3 -13 -6 0 -8 12 -13 12 -23
2 -6 -6 -19 -12 -27 -12 -12 1 -11 4 4 12 11 6 22 14 25 18 9 12 45 29 50 23
3 -2 -2 -10 -11 -16z m-648 -166 c-19 -19 -54 -41 -65 -41 -3 0 -6 5 -6 10 0
6 5 10 11 10 6 0 22 9 36 20 33 26 49 26 24 1z m-111 -5 c0 -3 -4 -8 -10 -11
-5 -3 -10 -1 -10 4 0 6 5 11 10 11 6 0 10 -2 10 -4z m743 -26 l-33 -31 -22 22
c-20 19 -21 20 -3 12 22 -11 43 -7 63 14 7 7 16 13 20 13 4 0 -8 -14 -25 -30z
m-73 -15 c7 -9 8 -15 2 -15 -5 0 -12 7 -16 15 -3 8 -4 15 -2 15 2 0 9 -7 16
-15z m-770 -29 c0 -3 -4 -8 -10 -11 -5 -3 -10 -1 -10 4 0 6 5 11 10 11 6 0 10
-2 10 -4z m130 -41 c-11 -13 -15 -13 -21 -3 -14 21 -10 31 6 18 13 -11 14 -10
9 6 -6 15 -4 17 6 7 11 -10 11 -15 0 -28z m-90 5 c0 -5 -2 -10 -4 -10 -3 0 -8
5 -11 10 -3 6 -1 10 4 10 6 0 11 -4 11 -10z m-38 -22 c-7 -7 -12 -8 -12 -2 0
14 12 26 19 19 2 -3 -1 -11 -7 -17z m168 -12 c0 -3 -4 -8 -10 -11 -5 -3 -10
-1 -10 4 0 6 5 11 10 11 6 0 10 -2 10 -4z m37 -33 c-9 -9 -20 -14 -24 -10 -3
4 2 14 13 21 10 8 21 12 23 10 3 -2 -3 -12 -12 -21z m-469 -12 c3 -8 -1 -12
-9 -9 -7 2 -15 10 -17 17 -3 8 1 12 9 9 7 -2 15 -10 17 -17z m252 -1 c0 -5 -2
-10 -4 -10 -3 0 -8 5 -11 10 -3 6 -1 10 4 10 6 0 11 -4 11 -10z m178 -5 c-2
-1 -14 -8 -28 -15 l-25 -13 20 20 c11 11 24 18 28 16 5 -3 7 -6 5 -8z m699
-27 c-3 -8 -6 -5 -6 6 -1 11 2 17 5 13 3 -3 4 -12 1 -19z m-947 4 c0 -12 -60
-82 -71 -82 -23 0 -20 33 7 61 25 27 64 40 64 21z m176 -17 c-11 -8 -25 -15
-30 -15 -6 0 -2 7 8 15 11 8 25 15 30 15 6 0 2 -7 -8 -15z m-172 -40 c-9 -14
-19 -23 -22 -20 -5 4 26 45 35 45 2 0 -4 -11 -13 -25z m27 -53 c-7 -2 -22 -13
-33 -24 -11 -11 -22 -18 -24 -15 -3 2 9 17 27 31 17 15 34 24 38 20 3 -4 0 -9
-8 -12z m-81 -2 c0 -5 -4 -10 -10 -10 -5 0 -10 5 -10 10 0 6 5 10 10 10 6 0
10 -4 10 -10z m816 -55 c-9 -9 -16 -13 -16 -8 0 4 -4 2 -9 -6 -5 -8 -14 -10
-22 -6 -9 6 -5 14 17 31 32 26 58 16 30 -11z m-881 14 c11 -17 -1 -21 -15 -4
-8 9 -8 15 -2 15 6 0 14 -5 17 -11z m971 0 c3 -6 0 -15 -7 -20 -22 -14 -28
-11 -22 11 6 22 18 26 29 9z m-139 -45 c2 -7 -6 -11 -20 -10 -16 0 -23 6 -19
14 5 15 34 12 39 -4z m-823 -9 c3 -8 1 -15 -3 -15 -5 0 -11 7 -15 15 -3 8 -1
15 3 15 5 0 11 -7 15 -15z m236 11 c0 -3 -4 -8 -10 -11 -5 -3 -10 -1 -10 4 0
6 5 11 10 11 6 0 10 -2 10 -4z m685 -8 c3 -3 -6 -13 -21 -22 -29 -20 -49 -12
-22 8 10 7 15 16 12 19 -3 3 1 4 10 3 8 -1 18 -5 21 -8z m-155 -18 c0 -5 -4
-10 -10 -10 -5 0 -10 5 -10 10 0 6 5 10 10 10 6 0 10 -4 10 -10z m-648 -45 c9
-20 9 -20 -6 -1 -9 11 -16 27 -15 35 0 14 1 14 6 1 3 -8 10 -24 15 -35z m-673
10 c13 -14 19 -25 14 -25 -5 0 -20 11 -33 25 -13 14 -19 25 -14 25 5 0 20 -12
33 -25z m1247 -10 c-42 -37 -51 -41 -61 -25 -3 6 0 10 7 10 7 0 26 11 42 25
16 14 34 25 40 25 6 0 -7 -16 -28 -35z m163 16 c9 -6 10 -11 2 -15 -13 -8 -31
1 -31 15 0 11 11 11 29 0z m-1194 -11 c3 -5 1 -10 -4 -10 -6 0 -11 5 -11 10 0
6 2 10 4 10 3 0 8 -4 11 -10z m1154 -19 c9 -6 10 -10 2 -16 -16 -9 -44 2 -36
15 8 12 16 12 34 1z m-1141 -16 c-2 -5 -9 -9 -15 -9 -7 1 -10 -3 -6 -9 18 -29
11 -53 -19 -65 -25 -9 -29 -8 -24 3 3 8 -7 23 -22 34 -31 23 -28 29 16 33 17
1 34 8 37 16 6 15 38 13 33 -3z m931 -17 c-5 -10 -16 -18 -24 -18 -8 0 -15 -4
-15 -8 0 -4 -9 -8 -20 -9 -11 -1 -20 2 -20 8 0 5 9 9 20 9 11 0 20 5 20 10 0
6 7 10 16 10 8 0 13 4 10 8 -3 5 1 9 9 9 10 0 11 -5 4 -19z m136 -8 c9 -16 11
-30 6 -30 -5 0 -12 7 -15 16 -6 15 -10 14 -31 -6 -14 -13 -25 -28 -25 -34 0
-6 7 -3 14 7 14 19 26 22 26 8 0 -15 -31 -42 -41 -36 -5 4 -9 0 -9 -8 0 -8 -6
-20 -14 -26 -18 -15 -73 4 -73 27 0 25 17 43 36 37 9 -2 34 12 61 35 25 22 46
40 47 40 1 0 9 -13 18 -30z m-615 -56 c0 -3 -7 -1 -15 6 -8 7 -15 17 -15 22 0
5 7 3 15 -6 8 -8 15 -18 15 -22z m62 19 c20 -18 23 -39 7 -49 -7 -4 -9 0 -5
14 5 14 1 21 -14 25 -11 3 -20 10 -20 16 0 16 10 14 32 -6z m-26 -48 c-2 -7 6
-26 20 -42 26 -31 31 -45 12 -37 -23 8 -59 67 -46 75 6 4 7 12 3 19 -6 9 -4
11 4 6 7 -5 10 -14 7 -21z m-514 -9 c19 -19 58 -30 58 -17 0 6 7 11 15 11 8 0
15 -5 15 -12 0 -6 7 -4 18 5 23 21 28 21 36 1 3 -9 2 -12 -5 -8 -6 3 -5 -3 2
-15 8 -12 16 -16 20 -10 3 6 18 0 36 -15 32 -27 49 -34 38 -16 -12 20 12 9 35
-15 13 -14 30 -23 37 -21 7 3 13 -1 13 -9 0 -8 10 -21 22 -29 12 -9 17 -16 11
-16 -7 0 -15 5 -18 10 -4 6 -11 8 -16 4 -5 -3 -16 0 -24 6 -11 9 -18 10 -29 1
-10 -9 -15 -8 -20 4 -3 8 -14 15 -24 15 -10 0 -23 5 -30 12 -6 6 -15 8 -19 5
-7 -7 26 -35 57 -49 12 -5 12 -7 -3 -7 -11 -1 -31 8 -47 19 -15 11 -30 17 -34
13 -3 -3 -6 1 -6 10 0 10 6 17 13 17 6 0 3 6 -8 12 -11 7 -33 11 -48 9 -26 -2
-28 0 -22 21 4 16 3 19 -3 9 -8 -11 -19 -5 -53 28 -24 22 -40 41 -37 41 4 0
13 -6 20 -14z m9 -53 c13 -16 12 -17 -3 -4 -10 7 -18 15 -18 17 0 8 8 3 21
-13z m609 7 c-19 -13 -30 -13 -30 0 0 6 10 10 23 10 18 0 19 -2 7 -10z m-20
-89 c-1 -10 -6 -7 -15 9 -19 33 -18 50 0 26 8 -11 15 -27 15 -35z m-475 29 c3
-5 1 -10 -4 -10 -6 0 -11 5 -11 10 0 6 2 10 4 10 3 0 8 -4 11 -10z m-381 -21
c-6 -11 -24 -2 -24 11 0 5 7 7 15 4 8 -4 12 -10 9 -15z m49 -85 c-3 -8 1 -14
9 -14 18 0 42 -43 35 -62 -3 -8 -9 -3 -17 15 -7 15 -19 27 -25 27 -21 0 -37
28 -30 50 5 16 10 19 20 10 8 -6 11 -18 8 -26z m491 7 c-2 -3 -12 3 -22 13
-16 17 -16 18 5 5 12 -7 20 -15 17 -18z m116 19 c0 -5 -6 -10 -14 -10 -8 0
-18 5 -21 10 -3 6 3 10 14 10 12 0 21 -4 21 -10z m-670 -35 c9 -10 9 -15 1
-15 -6 0 -11 4 -11 9 0 5 -8 12 -17 14 -15 4 -15 5 -2 6 9 0 22 -6 29 -14z
m720 -47 c12 -22 18 -38 12 -35 -14 10 -53 77 -44 77 5 0 19 -19 32 -42z
m-1009 -11 c-10 -9 -11 -8 -5 6 3 10 9 15 12 12 3 -3 0 -11 -7 -18z m963 -12
c-3 -7 2 -15 10 -18 9 -4 16 -14 15 -24 0 -14 -2 -15 -6 -3 -4 8 -12 20 -18
25 -19 16 -27 45 -10 39 8 -3 12 -11 9 -19z m-919 -13 c-6 -7 -34 11 -29 19 3
5 11 3 19 -4 7 -6 12 -13 10 -15z m332 -12 c28 -27 40 -47 39 -65 -1 -26 -16
-36 -16 -10 0 8 1 17 3 20 1 2 -5 10 -13 17 -33 28 -73 78 -63 78 5 0 28 -18
50 -40z m-313 -15 c-4 -8 -10 -12 -15 -9 -11 6 -2 24 11 24 5 0 7 -7 4 -15z
m640 3 c-14 -6 -28 -7 -39 -1 -13 8 -8 10 22 11 33 0 35 -1 17 -10z m160 -14
c10 -25 -1 -29 -14 -5 -6 12 -7 21 -1 21 5 0 12 -7 15 -16z m-764 -20 c0 -8
-5 -12 -10 -9 -6 4 -8 11 -5 16 9 14 15 11 15 -7z m-42 -51 c14 -12 14 -13 -1
-13 -18 0 -40 33 -29 44 3 4 8 1 10 -6 3 -7 11 -19 20 -25z m1145 -25 c8 -5 7
-8 -4 -8 -9 0 -20 7 -23 16 -3 8 -10 12 -16 9 -14 -9 -13 8 2 23 10 10 14 8
21 -10 4 -12 13 -26 20 -30z m-644 7 c26 -13 50 -46 33 -45 -10 1 -78 60 -69
60 5 0 21 -7 36 -15z m-643 -7 c4 -7 3 -8 -4 -4 -7 4 -12 1 -12 -9 0 -9 -5
-13 -10 -10 -8 5 -7 11 1 21 14 17 16 17 25 2z m544 2 c0 -5 -2 -10 -4 -10 -3
0 -8 5 -11 10 -3 6 -1 10 4 10 6 0 11 -4 11 -10z m686 -17 c-7 -7 -26 7 -26
19 0 6 6 6 15 -2 9 -7 13 -15 11 -17z m-1151 -41 c-2 -3 -7 3 -11 12 -3 9 -15
16 -25 16 -24 0 -25 17 -1 22 16 3 48 -39 37 -50z m-145 28 c8 -5 12 -12 8
-15 -10 -10 -49 5 -43 16 8 11 16 11 35 -1z m694 -6 c5 -14 4 -15 -9 -4 -17
14 -19 20 -6 20 5 0 12 -7 15 -16z m631 -5 c11 -17 -1 -21 -15 -4 -8 9 -8 15
-2 15 6 0 14 -5 17 -11z m-1140 -28 c-3 -6 -11 -8 -17 -5 -6 4 -5 9 3 15 16
10 23 4 14 -10z m115 9 c0 -5 -2 -10 -4 -10 -3 0 -8 5 -11 10 -3 6 -1 10 4 10
6 0 11 -4 11 -10z m-205 -10 c13 -6 15 -9 5 -9 -8 0 -22 4 -30 9 -18 12 -2 12
25 0z m135 1 c0 -5 -7 -11 -14 -14 -10 -4 -13 -1 -9 9 6 15 23 19 23 5z m450
-1 c0 -5 -2 -10 -4 -10 -3 0 -8 5 -11 10 -3 6 -1 10 4 10 6 0 11 -4 11 -10z
m-685 -10 c3 -5 1 -10 -4 -10 -6 0 -11 5 -11 10 0 6 2 10 4 10 3 0 8 -4 11
-10z m46 1 c-12 -7 -10 -14 8 -37 19 -25 20 -29 6 -43 -11 -12 -18 -12 -27 -3
-6 6 -8 15 -4 19 4 4 11 1 16 -7 7 -11 10 -11 10 -2 0 7 -7 24 -16 37 -16 25
-12 45 9 45 8 0 7 -3 -2 -9z m1199 -1 c0 -5 -2 -10 -4 -10 -3 0 -8 5 -11 10
-3 6 -1 10 4 10 6 0 11 -4 11 -10z m40 -4 c0 -3 -4 -8 -10 -11 -5 -3 -10 -1
-10 4 0 6 5 11 10 11 6 0 10 -2 10 -4z m-547 -21 c9 -21 -9 -28 -27 -9 -21 20
-20 24 3 24 10 0 21 -7 24 -15z m-476 -27 c-3 -7 -5 -2 -5 12 0 14 2 19 5 13
2 -7 2 -19 0 -25z m-250 0 c-3 -8 -6 -5 -6 6 -1 11 2 17 5 13 3 -3 4 -12 1
-19z m83 12 c0 -5 -4 -10 -10 -10 -5 0 -10 5 -10 10 0 6 5 10 10 10 6 0 10 -4
10 -10z m1180 -4 c0 -11 -19 -15 -25 -6 -3 5 1 10 9 10 9 0 16 -2 16 -4z
m-550 -38 c0 -13 -9 -34 -20 -48 -15 -20 -21 -22 -31 -13 -10 10 -8 18 11 38
13 14 20 25 16 25 -4 0 -4 5 -1 10 11 18 25 11 25 -12z m-543 -3 c0 -11 -4
-12 -14 -4 -7 6 -13 13 -13 15 0 2 6 4 13 4 8 0 14 -7 14 -15z m-7 -69 c0 -1
-8 -2 -19 -2 -10 0 -17 6 -14 12 2 7 0 15 -6 19 -6 3 -11 12 -11 18 0 7 11 -1
25 -17 14 -16 25 -30 25 -30z m-369 17 c13 -16 12 -17 -3 -4 -10 7 -18 15 -18
17 0 8 8 3 21 -13z m314 7 c3 -5 1 -10 -4 -10 -6 0 -11 5 -11 10 0 6 2 10 4
10 3 0 8 -4 11 -10z m532 -43 c8 -16 7 -25 -3 -35 -15 -14 -20 -7 -22 31 -2
33 11 35 25 4z m-854 -1 c16 -12 16 -14 1 -20 -23 -9 -104 -7 -104 2 0 31 70
43 103 18z m465 -68 c7 -9 6 -17 -3 -25 -11 -10 -17 -10 -29 3 -9 8 -16 20
-16 25 0 13 36 11 48 -3z m-514 -17 c3 -5 15 -7 26 -4 22 6 28 -12 8 -19 -17
-6 -71 16 -62 25 10 10 22 9 28 -2z m-154 -35 c0 -2 -7 -7 -16 -10 -8 -3 -12
-2 -9 4 6 10 25 14 25 6z m-534 -43 c-10 -10 -19 5 -10 18 6 11 8 11 12 0 2
-7 1 -15 -2 -18z m1184 6 c0 -6 -4 -7 -10 -4 -5 3 -10 11 -10 16 0 6 5 7 10 4
6 -3 10 -11 10 -16z m-80 1 c0 -5 -5 -10 -11 -10 -5 0 -7 5 -4 10 3 6 8 10 11
10 2 0 4 -4 4 -10z m-550 -22 c0 -6 -6 -5 -15 2 -8 7 -15 14 -15 16 0 2 7 1
15 -2 8 -4 15 -11 15 -16z m-237 -29 c22 -25 15 -38 -9 -18 -13 11 -18 11 -21
2 -3 -7 -9 -13 -14 -13 -4 0 -6 7 -3 15 4 10 0 15 -12 16 -18 0 -17 1 1 9 31
13 39 12 58 -11z m992 -85 c-17 -18 -29 -18 -22 0 3 7 0 19 -6 26 -9 9 -6 9
15 -1 23 -10 25 -14 13 -25z m-626 -3 c8 -15 7 -20 -5 -25 -11 -4 -15 -2 -11
8 3 7 0 19 -6 25 -8 8 -8 11 1 11 6 0 16 -9 21 -19z m538 -3 c-3 -8 -6 -5 -6
6 -1 11 2 17 5 13 3 -3 4 -12 1 -19z m-801 -63 l16 -30 -20 20 c-11 11 -23 31
-27 45 -5 20 -4 22 5 10 6 -8 18 -28 26 -45z m24 14 c6 -10 7 -19 3 -19 -4 0
-13 11 -20 25 -13 29 2 24 17 -6z m841 4 c-8 -15 -10 -15 -11 -2 0 17 10 32
18 25 2 -3 -1 -13 -7 -23z m-61 13 c0 -2 -7 -7 -16 -10 -8 -3 -12 -2 -9 4 6
10 25 14 25 6z m24 -50 c-4 -12 -2 -16 5 -12 6 4 11 0 11 -9 0 -11 -5 -15 -14
-12 -10 4 -13 1 -10 -8 3 -8 2 -21 -3 -30 -9 -15 -11 -15 -22 -1 -10 12 -10
16 -2 16 7 0 9 5 4 13 -9 15 -4 58 10 75 14 17 29 -5 21 -32z m-510 -5 c-6 -6
-24 19 -24 34 1 6 7 1 15 -9 8 -11 12 -22 9 -25z m83 17 c-3 -8 -6 -5 -6 6 -1
11 2 17 5 13 3 -3 4 -12 1 -19z m-903 -70 c-3 -4 1 -15 9 -23 13 -13 17 -13
27 1 11 12 10 13 -5 8 -13 -5 -16 -4 -11 4 4 7 16 12 27 12 22 0 21 -36 -2
-51 -10 -8 -8 -9 9 -4 14 4 28 1 38 -9 14 -15 14 -17 0 -32 -15 -14 -20 -11
-17 8 0 4 -5 5 -12 2 -21 -8 -107 89 -107 121 l0 28 24 -28 c14 -16 23 -32 20
-37z m-425 39 c12 3 12 1 -3 -11 -21 -17 -36 -13 -36 12 0 12 3 13 11 5 6 -6
19 -9 28 -6z m1149 -12 c-3 -3 -9 2 -12 12 -6 14 -5 15 5 6 7 -7 10 -15 7 -18z
m-178 -21 c0 -3 -7 -1 -15 6 -8 7 -15 17 -15 22 0 5 7 3 15 -6 8 -8 15 -18 15
-22z m-1195 4 c-4 -10 8 -13 44 -12 37 1 48 -2 44 -12 -3 -8 -10 -11 -15 -8
-6 4 -8 -2 -3 -15 6 -20 4 -20 -42 -15 -26 4 -55 11 -63 16 -12 8 -12 8 3 4
21 -6 22 1 3 19 -7 8 -17 11 -21 7 -5 -4 -5 -1 -1 6 4 7 11 10 16 7 5 -3 11
-1 15 5 9 14 25 12 20 -2z m1399 -14 c3 -8 2 -12 -4 -9 -6 3 -10 10 -10 16 0
14 7 11 14 -7z m-1218 -3 c-3 -5 -15 -11 -26 -14 -17 -4 -19 -3 -9 9 12 15 44
20 35 5z m-62 -16 c-6 -16 -24 -21 -24 -7 0 11 11 22 21 22 5 0 6 -7 3 -15z
m1323 -7 c-3 -8 -6 -5 -6 6 -1 11 2 17 5 13 3 -3 4 -12 1 -19z m-511 -27 c-3
-5 4 -11 17 -15 21 -5 21 -6 4 -23 -17 -17 -19 -17 -28 0 -6 9 -14 15 -18 12
-5 -2 -15 3 -22 12 -12 14 -11 15 8 9 12 -4 24 -2 28 4 3 5 8 10 11 10 3 0 3
-4 0 -9z m309 -1 c3 -5 1 -10 -4 -10 -6 0 -11 5 -11 10 0 6 2 10 4 10 3 0 8
-4 11 -10z m295 -51 c0 -6 -4 -7 -10 -4 -5 3 -10 11 -10 16 0 6 5 7 10 4 6 -3
10 -11 10 -16z m-560 1 c0 -5 -5 -10 -11 -10 -5 0 -7 5 -4 10 3 6 8 10 11 10
2 0 4 -4 4 -10z m-210 -10 c0 -5 -4 -10 -10 -10 -5 0 -10 5 -10 10 0 6 5 10
10 10 6 0 10 -4 10 -10z m-510 -4 c0 -11 -19 -15 -25 -6 -3 5 1 10 9 10 9 0
16 -2 16 -4z m68 -37 c2 -5 8 -6 14 -3 5 3 23 -9 38 -27 18 -21 29 -28 30 -19
0 9 15 -1 38 -25 20 -22 55 -52 77 -66 40 -27 98 -79 92 -85 -9 -9 -46 11 -50
28 -4 12 -13 18 -24 17 -10 -2 -29 3 -43 11 -14 7 -26 11 -27 9 -1 -2 -12 5
-25 16 -30 26 -77 47 -89 40 -5 -4 -10 -1 -10 4 -1 6 -2 16 -3 21 0 6 -8 15
-16 20 -12 8 -12 10 -1 10 8 0 12 3 8 6 -3 4 -40 7 -82 9 -72 2 -76 1 -81 -22
-4 -13 -8 -22 -11 -19 -9 9 -116 -91 -127 -120 -8 -19 -8 -19 -16 1 -10 28 -1
54 24 67 11 6 48 37 81 69 50 47 69 59 110 67 51 10 87 6 93 -9z m1282 -3 c0
-3 -4 -8 -10 -11 -5 -3 -10 -1 -10 4 0 6 5 11 10 11 6 0 10 -2 10 -4z m-1045
-118 c28 -26 46 -48 40 -48 -13 0 -125 102 -125 114 0 11 22 -6 85 -66z m825
47 c0 -16 -27 -32 -37 -21 -7 7 16 36 28 36 5 0 9 -7 9 -15z m-1470 -25 c-6
-11 -21 -22 -33 -24 -42 -9 -97 -12 -97 -5 0 13 29 31 40 24 5 -3 17 1 26 9 8
9 29 16 45 16 27 0 29 -2 19 -20z m975 -5 c0 -14 89 -74 133 -90 20 -7 54 -20
75 -29 39 -17 53 -7 15 12 -18 8 -7 9 47 5 81 -7 113 -27 69 -43 -33 -13 -87
-7 -178 21 -101 30 -125 41 -119 56 3 7 1 13 -5 13 -6 0 -13 -6 -15 -12 -3 -8
-6 -6 -6 4 -1 10 -14 24 -31 33 -36 19 -41 48 -7 43 12 -2 22 -7 22 -13z m313
-6 c-2 -6 -8 -10 -13 -10 -5 0 -11 4 -13 10 -2 6 4 11 13 11 9 0 15 -5 13 -11z
m147 -118 c3 -5 1 -12 -5 -16 -5 -3 -10 1 -10 9 0 18 6 21 15 7z m-1335 -11
c0 -5 6 -10 14 -10 7 0 16 -8 18 -17 4 -14 -2 -18 -26 -19 -18 0 -67 -15 -110
-33 -42 -18 -82 -31 -89 -28 -6 2 17 14 52 27 34 12 77 37 94 55 34 34 47 41
47 25z m644 -15 c11 -8 16 -15 10 -15 -5 0 -18 7 -28 15 -11 8 -16 15 -10 15
5 0 18 -7 28 -15z m-1084 -5 c0 -5 -4 -10 -10 -10 -5 0 -10 5 -10 10 0 6 5 10
10 10 6 0 10 -4 10 -10z m1730 -10 c0 -5 -14 -10 -31 -10 -17 0 -28 4 -24 10
3 6 17 10 31 10 13 0 24 -4 24 -10z m250 -10 c0 -5 -4 -10 -10 -10 -5 0 -10 5
-10 10 0 6 5 10 10 10 6 0 10 -4 10 -10z m-1401 -3 c-2 -2 -26 -16 -54 -32
-49 -27 -49 -28 -30 -4 11 13 25 27 30 31 9 7 63 12 54 5z m145 -28 c-3 -5 1
-7 8 -4 7 3 20 1 28 -5 13 -8 13 -11 1 -22 -10 -10 -15 -10 -18 -1 -2 7 -11 9
-19 6 -8 -3 -14 -1 -14 4 0 10 -52 7 -80 -4 -8 -4 -35 -7 -60 -7 -33 -1 -45
-5 -45 -16 0 -21 -18 -32 -27 -17 -6 9 -8 9 -8 0 0 -13 -50 -31 -95 -34 -58
-4 -128 1 -121 9 4 4 11 7 14 8 4 0 16 5 26 9 11 5 43 9 72 9 28 1 50 4 48 7
-2 4 3 10 12 13 8 3 12 2 9 -4 -9 -15 -6 -13 69 25 38 19 80 35 95 35 14 0 32
4 40 9 17 11 74 -7 65 -20z m526 -81 c0 -10 -12 -4 -56 29 -17 13 -39 23 -48
23 -9 0 -14 5 -11 10 3 6 1 10 -5 10 -6 0 -9 4 -5 10 6 10 125 -67 125 -82z
m655 32 c3 -5 1 -10 -4 -10 -6 0 -11 5 -11 10 0 6 2 10 4 10 3 0 8 -4 11 -10z
m-1985 -52 c0 -5 -4 -6 -10 -3 -5 3 -19 1 -30 -5 -12 -6 -29 -10 -38 -7 -12 2
-7 8 18 19 35 15 60 14 60 -4z m1403 -10 c-5 -10 -33 10 -33 23 0 5 9 4 19 -3
11 -7 17 -16 14 -20z m-1346 16 c-3 -3 -12 -4 -19 -1 -8 3 -5 6 6 6 11 1 17
-2 13 -5z m116 -16 c27 -10 34 -22 19 -32 -15 -9 -122 27 -122 41 0 15 51 11
103 -9z m87 -13 c-7 -8 -22 -15 -34 -15 -21 1 -21 1 -2 15 27 21 53 20 36 0z
m1530 -93 c0 -4 -9 -13 -20 -20 -17 -10 -20 -10 -20 2 0 8 8 17 18 19 9 3 18
5 20 6 1 0 2 -2 2 -7z m-66 -27 c-4 -8 0 -23 7 -33 12 -16 12 -16 -5 0 -16 14
-17 48 -2 48 3 0 3 -7 0 -15z m-2324 -135 c0 -5 -5 -10 -11 -10 -5 0 -7 5 -4
10 3 6 8 10 11 10 2 0 4 -4 4 -10z m943 -17 c26 -9 47 -21 47 -26 0 -10 -29
-2 -85 23 -51 23 -25 25 38 3z m822 -3 c-2 -4 -16 -5 -30 -3 -13 3 -23 9 -20
13 2 4 16 5 30 3 13 -3 23 -9 20 -13z m-665 -30 c17 -6 9 -7 -25 -3 -27 3 -52
7 -54 9 -8 7 54 2 79 -6z m769 -1 c24 -9 29 -14 19 -20 -20 -13 8 -12 34 2 27
14 69 4 62 -16 -4 -10 -20 -15 -49 -15 -55 0 -75 8 -68 26 3 8 -1 14 -10 14
-9 0 -19 5 -22 10 -8 13 -5 13 34 -1z m-1425 -86 c18 -10 18 -11 -4 -23 -19
-10 -25 -9 -39 5 -9 10 -10 15 -3 11 15 -9 15 -1 1 27 -11 21 -11 21 7 6 10
-9 28 -21 38 -26z m-674 23 c0 -3 -4 -8 -10 -11 -5 -3 -10 -1 -10 4 0 6 5 11
10 11 6 0 10 -2 10 -4z m604 -38 c-4 -6 -10 -6 -16 0 -6 6 -18 8 -27 5 -13 -4
-13 -3 -2 5 7 5 10 15 6 22 -4 7 4 4 19 -5 14 -9 23 -22 20 -27z m571 -14 c-9
-9 -19 -13 -23 -10 -3 4 0 11 8 16 24 15 33 11 15 -6z m410 7 c3 -5 1 -12 -4
-15 -12 -8 -41 3 -41 15 0 12 37 12 45 0z m-1650 -12 c11 -17 -1 -21 -15 -4
-8 9 -8 15 -2 15 6 0 14 -5 17 -11z m1343 -3 c-13 -10 -15 -15 -6 -24 16 -16
29 -15 43 5 7 9 17 13 24 9 9 -6 9 -11 0 -22 -7 -9 -8 -14 -1 -14 6 0 12 5 14
12 2 6 14 12 27 13 14 1 20 -3 17 -12 -4 -9 4 -13 27 -13 22 0 28 -3 18 -9 -7
-5 -26 -8 -42 -7 -15 1 -26 -2 -23 -6 7 -11 -24 -10 -46 2 -13 7 -21 7 -25 0
-3 -5 -13 -10 -21 -10 -8 0 -13 4 -9 9 7 13 -6 20 -50 25 -21 3 -43 10 -48 15
-14 14 3 14 38 1 25 -10 27 -9 21 13 -5 21 -2 24 27 25 28 1 30 -1 15 -12z
m-1728 -58 c0 -5 11 -8 25 -8 23 0 65 -34 65 -52 0 -4 5 -8 10 -8 6 0 10 8 10
17 0 15 2 15 20 -3 21 -20 19 -54 -2 -54 -6 0 -8 7 -4 15 6 17 4 18 -18 9 -9
-3 -13 -11 -9 -17 3 -6 1 -7 -6 -3 -6 4 -9 11 -6 16 3 4 -2 13 -9 19 -10 8
-16 9 -21 1 -7 -12 -29 -2 -62 29 -12 12 -26 21 -31 21 -5 0 -9 6 -9 13 0 6
11 12 24 12 13 0 23 -3 23 -7z m-155 -48 c3 -5 1 -10 -4 -10 -6 0 -11 5 -11
10 0 6 2 10 4 10 3 0 8 -4 11 -10z m115 -57 c0 -10 -11 -23 -25 -30 -30 -13
-31 -10 -7 22 20 29 32 32 32 8z m210 7 c0 -5 -5 -10 -11 -10 -5 0 -7 5 -4 10
3 6 8 10 11 10 2 0 4 -4 4 -10z m1224 -19 c-2 -3 -12 3 -22 13 -16 17 -16 18
5 5 12 -7 20 -15 17 -18z m-1309 -10 c3 -5 7 -23 9 -39 3 -27 1 -29 -15 -19
-11 7 -19 23 -19 39 0 27 13 37 25 19z m1355 -30 c-1 -14 -28 -42 -33 -34 -5
7 -3 35 2 50 2 5 31 -10 31 -16z m-1410 -36 c0 -2 -9 -9 -20 -15 -16 -9 -18
-8 -14 5 5 13 34 22 34 10z m1435 -5 c-3 -5 -11 -10 -16 -10 -6 0 -7 5 -4 10
3 6 11 10 16 10 6 0 7 -4 4 -10z m-1375 -22 c0 -6 -6 -5 -15 2 -8 7 -15 14
-15 16 0 2 7 1 15 -2 8 -4 15 -11 15 -16z m-375 -28 c3 -5 1 -10 -4 -10 -6 0
-11 5 -11 10 0 6 2 10 4 10 3 0 8 -4 11 -10z m2665 6 c0 -2 -7 -9 -15 -16 -13
-11 -14 -10 -9 4 5 14 24 23 24 12z m-2586 -119 c4 4 4 0 1 -9 -4 -9 -14 -14
-25 -11 -11 3 -16 11 -13 19 4 10 9 11 18 4 6 -5 15 -7 19 -3z m465 -55 c12
-22 -2 -48 -19 -37 -9 6 -9 10 1 17 11 7 11 11 2 15 -15 6 -17 23 -3 23 5 0
14 -8 19 -18z m84 -7 c26 -11 21 -23 -8 -17 -21 4 -24 1 -19 -14 4 -15 2 -14
-15 5 -12 13 -21 27 -21 31 0 9 36 6 63 -5z m-520 -1 c11 -11 -5 -34 -24 -34
-17 0 -18 3 -7 20 13 21 21 24 31 14z m775 -4 c20 0 14 -18 -9 -25 -29 -9 -89
-13 -89 -6 1 24 35 42 65 36 11 -3 26 -5 33 -5z m50 -18 c2 -7 -3 -12 -12 -12
-9 0 -16 7 -16 16 0 17 22 14 28 -4z m-1779 -15 c-2 -1 -14 -11 -26 -21 -13
-11 -23 -16 -23 -13 0 10 31 37 42 37 6 0 9 -1 7 -3z m1578 -18 c31 -13 223
-18 223 -6 0 14 47 7 63 -10 14 -17 13 -18 -14 -19 -16 -1 -29 2 -29 6 0 4
-28 5 -62 2 -35 -3 -78 -5 -95 -6 -18 -1 -33 -4 -33 -8 0 -3 -9 -4 -20 -1 -11
3 -20 9 -20 14 0 5 -5 9 -11 9 -5 0 -8 -4 -4 -9 3 -5 1 -12 -4 -16 -10 -6 -31
24 -31 44 0 14 2 14 37 0z m1110 5 c-3 -3 -12 -4 -19 -1 -8 3 -5 6 6 6 11 1
17 -2 13 -5z m395 -16 c-11 -11 -32 -3 -32 12 0 4 9 6 21 3 13 -4 17 -9 11
-15z m-3162 2 c0 -5 -4 -10 -10 -10 -5 0 -10 5 -10 10 0 6 5 10 10 10 6 0 10
-4 10 -10z m110 0 c-19 -13 -30 -13 -30 0 0 6 10 10 23 10 18 0 19 -2 7 -10z
m1448 -15 c-3 -3 -9 2 -12 12 -6 14 -5 15 5 6 7 -7 10 -15 7 -18z m612 9 c8
-3 38 -7 67 -10 104 -11 106 -21 3 -16 -61 3 -108 9 -112 16 -6 8 -8 7 -8 -2
0 -8 -18 -12 -62 -11 -58 1 -88 11 -88 29 0 8 176 3 200 -6z m-1973 -30 c3
-18 2 -18 -6 1 -9 19 -10 20 -10 1 -1 -15 -4 -17 -12 -9 -13 13 -2 36 14 30 7
-2 13 -12 14 -23z m463 -5 c0 -14 -16 -11 -29 5 -10 12 -8 13 8 9 12 -3 21 -9
21 -14z m-515 -19 c11 -18 -14 -38 -40 -32 -31 5 -32 20 -2 32 30 12 35 12 42
0z m1275 -9 c0 -11 4 -22 9 -25 5 -4 7 3 4 14 -5 19 -3 20 21 9 28 -13 30 -17
17 -38 -5 -8 -14 -10 -22 -5 -12 6 -12 5 0 -9 17 -21 22 -21 47 -1 16 13 16
15 2 10 -10 -3 -18 -1 -18 4 0 15 26 12 39 -3 6 -8 8 -18 4 -23 -4 -5 -2 -4 6
2 15 14 54 6 48 -10 -3 -7 15 -11 50 -12 35 -1 58 -7 64 -15 6 -10 9 -11 9 -1
0 14 36 17 44 3 3 -5 15 -7 26 -4 16 4 19 2 14 -11 -3 -9 -10 -13 -15 -10 -5
3 -15 2 -21 -3 -7 -4 -22 -8 -33 -8 -11 0 -19 -6 -18 -12 3 -15 -23 -18 -32
-4 -3 6 -24 9 -46 8 -22 -2 -43 1 -45 5 -3 4 -16 8 -29 8 -13 0 -26 4 -29 9
-3 5 -22 9 -42 9 -20 0 -44 8 -56 19 -15 13 -22 15 -25 6 -7 -19 -46 11 -50
38 -2 17 0 19 9 11 7 -6 25 -10 40 -9 l27 2 -27 22 c-23 19 -25 24 -12 33 24
15 40 12 40 -9z m2240 15 c0 -2 -8 -10 -17 -17 -16 -13 -17 -12 -4 4 13 16 21
21 21 13z m-3135 -36 c-3 -5 1 -10 9 -10 9 0 16 -5 16 -10 0 -17 -31 -24 -40
-10 -9 15 -2 40 12 40 5 0 6 -4 3 -10z m693 -92 c-32 -31 -48 -35 -48 -13 0 8
-4 15 -10 15 -5 0 -10 -6 -10 -13 0 -18 -63 -47 -100 -47 -17 0 -39 9 -49 19
-11 11 -29 25 -41 31 -31 17 -19 22 18 8 25 -10 37 -10 52 0 25 15 50 5 50
-20 0 -14 5 -18 16 -14 9 3 20 6 25 6 6 0 1 13 -10 29 -25 35 -26 47 -6 55 8
3 15 1 15 -4 0 -6 6 -10 14 -10 8 0 16 -7 20 -15 9 -24 36 -18 46 10 5 14 15
32 22 39 11 12 14 9 19 -18 5 -25 1 -36 -23 -58z m2472 77 c7 -9 8 -15 2 -15
-5 0 -12 7 -16 15 -3 8 -4 15 -2 15 2 0 9 -7 16 -15z m-3076 -9 c-3 -7 -17
-13 -30 -13 -28 0 -21 12 11 20 11 3 21 5 22 6 1 0 0 -5 -3 -13z m-175 -46
c-28 -28 -29 -30 -12 -49 19 -23 25 -47 18 -78 -4 -19 -10 -21 -40 -16 -33 5
-35 4 -35 -21 0 -14 12 -40 27 -57 24 -27 32 -30 73 -26 25 2 51 2 58 0 14 -6
16 -33 2 -33 -5 0 -10 7 -10 16 0 8 -4 13 -8 10 -4 -2 -7 -20 -7 -39 1 -28 -2
-33 -17 -29 -10 2 -18 11 -18 19 0 8 -4 12 -10 8 -5 -3 -7 -12 -4 -19 3 -8 1
-17 -5 -21 -6 -3 -11 -1 -11 4 0 19 -17 12 -23 -9 -5 -21 -27 -28 -27 -9 0 7
-21 -10 -47 -36 l-48 -47 -8 43 c-9 55 5 118 42 184 16 28 32 74 36 102 5 41
15 62 47 98 22 25 43 43 48 40 5 -3 -5 -18 -21 -35z m86 16 c8 4 15 2 15 -4 0
-16 -33 -24 -41 -10 -4 7 -10 10 -13 7 -3 -3 4 -20 15 -38 17 -27 22 -31 35
-20 8 7 13 18 10 26 -3 7 -4 13 -2 13 3 0 12 3 20 6 14 5 15 2 6 -21 -6 -15
-8 -30 -6 -33 3 -3 10 8 16 23 l10 27 19 -24 c11 -12 23 -20 27 -16 4 4 1 14
-5 22 -7 8 -10 20 -6 26 9 15 25 12 19 -4 -3 -8 12 -28 38 -48 73 -59 96 -70
157 -74 33 -3 76 -11 98 -19 l38 -15 -60 5 c-33 3 -80 7 -105 8 -25 2 -61 8
-80 14 -19 6 -52 14 -73 18 -21 3 -47 15 -58 26 -12 12 -23 18 -26 15 -4 -3
-12 -1 -20 5 -10 9 -13 6 -13 -16 0 -22 4 -26 20 -22 11 3 22 1 25 -4 5 -8 -5
-11 -72 -25 -11 -2 -28 -7 -37 -10 -23 -9 -20 18 4 39 11 9 27 14 37 10 17 -6
17 -5 1 12 -17 18 -18 18 -37 1 -11 -10 -22 -13 -25 -8 -3 6 0 13 6 16 9 3 6
11 -11 26 -25 22 -22 42 3 21 8 -7 20 -10 26 -6 15 9 2 25 -15 18 -22 -8 -18
7 8 31 16 16 24 18 30 9 4 -7 14 -10 22 -7z m155 -25 c0 -9 28 -22 58 -27 18
-3 27 -13 19 -20 -4 -4 -20 -1 -36 6 -33 13 -71 50 -53 50 7 0 12 -4 12 -9z
m1140 -60 c0 -5 -7 -11 -14 -14 -10 -4 -13 -1 -9 9 6 15 23 19 23 5z m-776
-27 c35 -13 14 -25 -31 -18 -27 4 -56 7 -65 6 -10 0 -18 3 -18 9 0 10 89 13
114 3z m1153 -31 c-6 -38 -24 -56 -50 -51 -18 4 -24 1 -20 -9 5 -13 -51 -41
-70 -35 -5 1 -7 -7 -5 -19 2 -17 -4 -24 -26 -30 -17 -5 -32 -6 -34 -4 -8 8
105 118 124 120 26 3 74 26 74 37 0 4 2 8 5 8 3 0 4 -8 2 -17z m-1023 -18 c-4
-8 -10 -15 -15 -15 -4 0 -6 7 -3 15 4 8 10 15 15 15 4 0 6 -7 3 -15z m-182
-27 c-6 -6 -8 -16 -6 -23 3 -7 -2 -15 -10 -18 -19 -8 -20 1 -4 35 7 15 17 24
21 21 5 -3 4 -10 -1 -15z m8 -68 c0 -5 -2 -10 -4 -10 -3 0 -8 5 -11 10 -3 6
-1 10 4 10 6 0 11 -4 11 -10z m-26 -16 c4 -9 5 -18 4 -19 -11 -7 -98 -44 -118
-50 l-25 -7 24 26 c14 14 30 26 38 26 7 0 13 4 13 8 0 8 36 30 51 31 4 1 10
-6 13 -15z m932 -26 c4 -7 3 -8 -5 -4 -6 4 -18 2 -26 -4 -9 -8 -15 -8 -15 -2
0 9 15 19 32 21 4 1 10 -4 14 -11z m1354 8 c0 -3 -4 -8 -10 -11 -5 -3 -10 -1
-10 4 0 6 5 11 10 11 6 0 10 -2 10 -4z m-2450 -81 c-7 -8 -16 -15 -21 -15 -14
0 -10 17 8 36 20 20 32 1 13 -21z m-487 -95 c-31 -13 -30 -48 1 -60 23 -8 24
-11 15 -52 -6 -23 -20 -58 -32 -78 l-22 -35 -3 85 c-2 47 0 100 3 118 5 27 10
32 33 31 26 0 26 -1 5 -9z m-173 -4 c0 -3 -4 -8 -10 -11 -5 -3 -10 -1 -10 4 0
6 5 11 10 11 6 0 10 -2 10 -4z m1580 -58 c0 -4 -12 -8 -26 -8 -14 0 -23 4 -19
9 6 11 45 10 45 -1z m1260 -58 c0 -5 -2 -10 -4 -10 -3 0 -8 5 -11 10 -3 6 -1
10 4 10 6 0 11 -4 11 -10z m-2060 -37 c1 -10 7 -35 15 -57 8 -24 9 -34 2 -27
-18 18 -29 13 -22 -10 4 -13 1 -27 -11 -40 -17 -18 -17 -18 -41 7 -13 15 -25
25 -26 23 -2 -2 -9 -16 -17 -31 -7 -16 -14 -27 -15 -25 -1 1 1 27 4 58 4 37
14 63 29 79 12 13 22 19 22 14 0 -6 7 -19 15 -30 14 -18 14 -18 8 4 -5 22 11
52 28 52 5 0 9 -8 9 -17z m78 5 c15 -15 16 -72 2 -63 -5 3 -10 17 -10 31 0 13
-4 24 -10 24 -5 0 -10 5 -10 10 0 14 13 13 28 -2z m1307 -58 c3 -6 1 -10 -4
-10 -6 0 -11 5 -11 10 0 6 -7 10 -15 10 -8 0 -15 5 -15 10 0 12 35 -4 45 -20z
m591 3 c-10 -10 -19 5 -10 18 6 11 8 11 12 0 2 -7 1 -15 -2 -18z m-2216 -3 c0
-5 -7 -7 -15 -4 -8 4 -12 10 -9 15 6 11 24 2 24 -11z m-65 -20 c-3 -11 -2 -20
3 -20 5 0 2 -27 -7 -60 -9 -33 -21 -60 -28 -60 -6 0 -16 -24 -21 -52 l-10 -53
-1 67 c0 37 3 77 8 90 30 76 45 108 53 108 5 0 6 -9 3 -20z m-194 -7 c-26 -51
-33 -72 -29 -85 3 -7 1 -21 -4 -30 -10 -20 2 -24 20 -6 15 15 15 10 1 -30 -6
-19 -16 -29 -24 -26 -7 3 -25 -7 -41 -21 -24 -22 -26 -29 -16 -46 8 -12 9 -19
1 -19 -5 0 -7 -4 -4 -10 3 -5 -1 -21 -10 -34 -9 -14 -18 -31 -19 -38 -2 -7 -8
-24 -14 -38 -9 -22 -11 -23 -12 -5 -1 11 -1 51 0 90 2 73 25 128 75 185 13 14
30 49 40 78 10 30 22 52 31 52 10 0 12 -5 5 -17z m-136 -65 c11 -27 -10 -22
-24 6 -8 15 -10 33 -5 47 7 24 8 23 15 -6 3 -16 10 -38 14 -47z m705 -28 c0
-5 -2 -10 -4 -10 -3 0 -8 5 -11 10 -3 6 -1 10 4 10 6 0 11 -4 11 -10z m-330
-94 c0 -3 -4 -8 -10 -11 -5 -3 -10 -1 -10 4 0 6 5 11 10 11 6 0 10 -2 10 -4z
m1073 -19 c4 3 7 -1 7 -10 0 -19 -15 -23 -25 -6 -5 7 -14 4 -28 -8 l-21 -18
20 27 c12 17 23 23 30 17 6 -5 14 -6 17 -2z m49 -6 c8 11 9 11 6 1 -4 -16 -22
-18 -24 -2 -2 7 -1 6 3 -1 4 -8 8 -7 15 2z m-141 -24 c24 -18 24 -18 2 -13
-13 2 -23 0 -23 -5 0 -5 -5 -9 -11 -9 -13 0 -39 25 -39 37 0 15 45 9 71 -10z
m-1 -37 c0 -5 -4 -10 -10 -10 -5 0 -10 5 -10 10 0 6 5 10 10 10 6 0 10 -4 10
-10z m230 -50 c0 -5 -5 -10 -11 -10 -5 0 -7 5 -4 10 3 6 8 10 11 10 2 0 4 -4
4 -10z m-340 -380 c0 -5 -5 -10 -11 -10 -5 0 -7 5 -4 10 3 6 8 10 11 10 2 0 4
-4 4 -10z m-278 -58 c-7 -5 -10 -16 -6 -25 3 -10 1 -17 -6 -17 -6 0 -8 -5 -5
-10 11 -17 -17 -121 -31 -116 -7 2 -20 -2 -31 -9 -25 -20 -32 -18 -26 5 3 11
9 17 14 14 10 -6 58 27 59 41 0 5 -5 4 -12 -3 -7 -7 -23 -12 -36 -12 -19 0
-23 4 -17 18 5 9 8 26 9 36 1 27 56 86 80 86 15 0 17 -3 8 -8z m-92 -233 c0
-5 -4 -9 -10 -9 -5 0 -9 -3 -8 -7 4 -15 -13 -53 -24 -53 -5 0 -7 7 -4 16 3 9
6 26 6 38 0 15 7 22 20 23 11 1 20 -2 20 -8z m45 -26 c-7 -25 -8 -26 -15 -8
-4 11 -3 26 3 33 15 18 20 7 12 -25z m-95 -133 c0 -5 -4 -10 -10 -10 -5 0 -10
5 -10 10 0 6 5 10 10 10 6 0 10 -4 10 -10z m-530 -78 c0 -13 -12 -22 -22 -16
-10 6 -1 24 13 24 5 0 9 -4 9 -8z m1403 -155 c3 -8 -3 -13 -14 -13 -19 0 -24
8 -12 19 10 11 20 8 26 -6z"/>
<path d="M7110 6812 c0 -8 -5 -10 -12 -6 -7 4 -4 -3 7 -15 21 -24 33 -13 16
16 -6 11 -11 13 -11 5z"/>
<path d="M7196 6784 c-15 -14 -26 -27 -23 -30 3 -3 20 8 39 25 18 17 29 30 23
30 -5 0 -23 -11 -39 -25z"/>
<path d="M7031 6763 c-6 -7 -7 -14 -3 -16 11 -7 72 13 72 23 0 13 -55 7 -69
-7z"/>
<path d="M7132 6758 c-14 -14 -16 -28 -3 -28 9 0 24 30 18 36 -2 2 -9 -2 -15
-8z"/>
<path d="M7060 6725 c0 -8 -4 -15 -10 -15 -5 0 -10 -5 -10 -12 0 -9 3 -9 11
-1 6 6 18 9 26 6 13 -5 13 -2 4 15 -14 26 -21 28 -21 7z"/>
<path d="M7090 6731 c0 -5 5 -13 10 -16 6 -3 10 -2 10 4 0 5 -4 13 -10 16 -5
3 -10 2 -10 -4z"/>
<path d="M7185 6730 c3 -5 10 -10 16 -10 5 0 9 5 9 10 0 6 -7 10 -16 10 -8 0
-12 -4 -9 -10z"/>
<path d="M7133 6713 c-24 -9 -13 -20 15 -15 l27 5 -25 -19 c-14 -11 -42 -31
-62 -44 -21 -14 -38 -29 -38 -34 0 -4 16 4 35 18 19 15 35 24 35 21 0 -4 7 0
15 7 8 7 21 19 30 26 28 24 3 50 -32 35z"/>
<path d="M7085 6680 c-3 -5 1 -10 9 -10 9 0 16 5 16 10 0 6 -4 10 -9 10 -6 0
-13 -4 -16 -10z"/>
<path d="M6995 6670 c-3 -5 -2 -10 4 -10 5 0 13 5 16 10 3 6 2 10 -4 10 -5 0
-13 -4 -16 -10z"/>
<path d="M7030 6650 c0 -5 5 -10 11 -10 5 0 7 5 4 10 -3 6 -8 10 -11 10 -2 0
-4 -4 -4 -10z"/>
<path d="M6842 6610 l-23 -19 22 -23 21 -23 -12 23 c-10 20 -9 27 6 43 22 24
16 24 -14 -1z"/>
<path d="M6867 6603 c-4 -3 -7 -11 -7 -17 0 -6 5 -5 12 2 6 6 9 14 7 17 -3 3
-9 2 -12 -2z"/>
<path d="M6870 6529 c0 -5 5 -7 10 -4 6 3 10 8 10 11 0 2 -4 4 -10 4 -5 0 -10
-5 -10 -11z"/>
<path d="M6505 6420 c-3 -5 -1 -10 4 -10 6 0 11 5 11 10 0 6 -2 10 -4 10 -3 0
-8 -4 -11 -10z"/>
<path d="M7086 6062 c-4 -13 -5 -26 -2 -29 10 -11 18 4 14 29 l-4 23 -8 -23z"/>
<path d="M6267 5963 c-12 -11 -8 -21 13 -26 17 -4 18 -2 9 14 -11 21 -13 22
-22 12z"/>
<path d="M2241 3181 c-8 -5 -9 -11 -3 -15 5 -3 12 1 16 9 6 17 6 18 -13 6z"/>
<path d="M2296 3161 c-4 -5 3 -7 14 -4 23 6 26 13 6 13 -8 0 -17 -4 -20 -9z"/>
<path d="M2430 3160 c0 -5 5 -10 11 -10 5 0 7 5 4 10 -3 6 -8 10 -11 10 -2 0
-4 -4 -4 -10z"/>
<path d="M1920 3169 c0 -5 5 -7 10 -4 6 3 10 8 10 11 0 2 -4 4 -10 4 -5 0 -10
-5 -10 -11z"/>
<path d="M1375 3100 c4 -6 11 -8 16 -5 14 9 11 15 -7 15 -8 0 -12 -5 -9 -10z"/>
<path d="M1550 2501 c0 -10 19 -25 25 -20 1 2 -3 10 -11 17 -8 7 -14 8 -14 3z"/>
<path d="M1590 2474 c0 -8 5 -12 10 -9 6 3 10 10 10 16 0 5 -4 9 -10 9 -5 0
-10 -7 -10 -16z"/>
<path d="M7738 7265 c-31 -27 -36 -40 -12 -31 14 5 15 4 4 -9 -7 -8 -9 -15 -4
-15 5 0 19 18 32 40 26 45 19 50 -20 15z"/>
<path d="M7675 7220 c-3 -5 1 -10 10 -10 9 0 14 -4 11 -9 -4 -5 -2 -20 4 -33
8 -19 9 -16 5 17 -2 22 -4 41 -5 43 -1 6 -20 1 -25 -8z"/>
<path d="M7040 7200 c-10 -6 -11 -10 -2 -10 6 0 12 -5 12 -10 0 -7 -6 -7 -19
0 -27 14 -34 13 -28 -4 4 -10 1 -13 -9 -9 -7 3 -14 0 -14 -7 0 -15 -25 -40
-41 -40 -7 0 -2 12 12 26 l24 26 -26 -12 c-25 -11 -32 -31 -17 -46 4 -3 4 -12
1 -20 -10 -26 32 -15 48 12 l17 27 0 -29 c0 -16 -8 -38 -17 -48 -15 -18 -15
-18 6 -7 12 6 34 30 50 53 15 23 45 50 66 61 38 19 49 37 22 37 -8 0 -15 -4
-15 -10 0 -5 -4 -10 -10 -10 -5 0 -9 6 -7 12 3 16 -33 21 -53 8z"/>
<path d="M6890 7120 c-6 -11 -20 -20 -30 -20 -11 0 -20 -4 -20 -10 0 -16 40
-11 47 6 3 8 11 13 18 10 8 -3 11 2 8 15 -7 24 -10 24 -23 -1z"/>
<path d="M7055 7099 c-4 -6 -5 -12 -2 -15 2 -3 7 2 10 11 7 17 1 20 -8 4z"/>
<path d="M6661 6936 c-10 -12 -8 -13 8 -9 12 3 18 9 15 14 -7 12 -10 11 -23
-5z"/>
<path d="M6593 6887 c-10 -13 -24 -22 -31 -19 -6 2 -12 -1 -12 -7 0 -6 8 -11
17 -11 12 0 4 -13 -27 -45 -30 -31 -47 -42 -54 -35 -8 8 -6 14 4 20 11 7 11
10 2 10 -18 0 -26 -28 -13 -44 8 -10 6 -18 -10 -32 -22 -19 -22 -19 -10 4 7
12 9 27 5 33 -9 15 -44 -20 -37 -38 5 -12 1 -14 -15 -8 -12 3 -22 3 -22 -2 0
-4 -20 -21 -45 -38 -24 -16 -45 -34 -45 -38 0 -4 6 -4 13 0 6 5 29 19 50 32
20 12 37 27 37 33 0 5 5 6 10 3 6 -4 4 -13 -6 -23 -16 -15 -15 -17 7 -23 22
-6 21 -7 -18 -23 -22 -10 -43 -26 -46 -36 -4 -16 -2 -17 13 -7 10 6 16 15 14
19 -3 4 0 8 6 8 6 0 13 -6 16 -14 3 -8 12 -12 20 -9 20 8 17 23 -3 17 -16 -5
-16 -4 -2 8 9 7 21 23 28 35 7 15 17 20 28 16 13 -5 15 -2 10 11 -5 12 2 27
20 46 22 24 30 27 43 18 12 -10 13 -10 3 2 -7 8 -13 17 -13 22 0 4 6 5 13 3
15 -5 53 22 44 32 -9 8 22 43 38 43 7 0 19 7 26 16 12 15 11 16 -11 9 -21 -7
-23 -6 -13 7 12 14 8 28 -8 28 -4 0 -16 -10 -26 -23z m17 -21 c-5 -15 -14 -24
-20 -21 -6 4 -4 16 6 31 21 31 28 26 14 -10z"/>
<path d="M6640 6840 c-9 -6 -10 -10 -3 -10 6 0 15 5 18 10 8 12 4 12 -15 0z"/>
<path d="M6515 6829 c-11 -17 1 -21 15 -4 8 9 8 15 2 15 -6 0 -14 -5 -17 -11z"/>
<path d="M6390 6790 c-8 -5 -12 -11 -9 -14 2 -3 11 -1 19 4 8 5 12 11 9 14 -2
3 -11 1 -19 -4z"/>
<path d="M6694 6785 c-10 -8 -14 -15 -8 -15 6 0 17 7 24 15 16 19 9 19 -16 0z"/>
<path d="M6355 6750 c3 -5 8 -10 11 -10 2 0 4 5 4 10 0 6 -5 10 -11 10 -5 0
-7 -4 -4 -10z"/>
<path d="M6614 6745 c-12 -8 -24 -12 -27 -9 -3 3 -8 -4 -12 -15 -3 -12 -12
-18 -20 -15 -8 3 -26 -6 -40 -20 -14 -14 -30 -26 -34 -26 -4 0 -16 -10 -27
-22 l-19 -23 23 19 c12 11 25 17 28 13 6 -5 15 1 50 32 8 7 25 14 38 15 13 0
22 6 19 13 -2 6 4 14 15 17 22 7 50 36 35 36 -5 0 -18 -7 -29 -15z"/>
<path d="M6660 6745 c0 -8 5 -15 10 -15 6 0 10 7 10 15 0 8 -4 15 -10 15 -5 0
-10 -7 -10 -15z"/>
<path d="M6496 6714 c-11 -7 -17 -17 -13 -20 3 -4 14 1 23 10 21 22 15 28 -10
10z"/>
<path d="M6535 6640 c3 -5 8 -10 11 -10 2 0 4 5 4 10 0 6 -5 10 -11 10 -5 0
-7 -4 -4 -10z"/>
<path d="M6319 6620 c-13 -10 -20 -19 -16 -20 4 0 17 9 29 20 28 26 17 26 -13
0z"/>
<path d="M6131 6574 c-16 -20 -18 -30 -10 -40 6 -7 17 -10 24 -8 17 7 29 38
16 42 -5 2 -7 10 -4 18 8 22 -4 17 -26 -12z"/>
<path d="M7423 6552 c-26 -4 -30 -17 -9 -25 8 -3 20 1 27 9 14 18 11 21 -18
16z"/>
<path d="M7375 6520 c3 -5 8 -10 11 -10 2 0 4 5 4 10 0 6 -5 10 -11 10 -5 0
-7 -4 -4 -10z"/>
<path d="M7005 6460 c-3 -5 1 -10 9 -10 9 0 16 5 16 10 0 6 -4 10 -9 10 -6 0
-13 -4 -16 -10z"/>
<path d="M5725 6419 c-4 -6 -5 -12 -2 -15 2 -3 7 2 10 11 7 17 1 20 -8 4z"/>
<path d="M5740 6399 c0 -5 5 -7 10 -4 6 3 10 8 10 11 0 2 -4 4 -10 4 -5 0 -10
-5 -10 -11z"/>
<path d="M5695 6373 c4 -10 8 -22 9 -28 4 -22 19 -36 33 -31 10 4 13 2 10 -8
-4 -10 -1 -13 9 -9 17 6 17 13 -1 37 -8 10 -12 23 -8 29 7 11 -15 27 -41 27
-13 0 -16 -5 -11 -17z"/>
<path d="M5522 6282 c-21 -19 -21 -19 16 -19 20 0 46 -4 57 -8 14 -5 10 1 -10
19 -36 31 -37 31 -63 8z"/>
<path d="M5715 6230 c-3 -5 -1 -10 4 -10 6 0 11 5 11 10 0 6 -2 10 -4 10 -3 0
-8 -4 -11 -10z"/>
<path d="M5269 6072 c-14 -9 -33 -25 -43 -34 -10 -10 -22 -18 -28 -18 -6 0 -5
-6 2 -15 11 -14 10 -14 -14 -5 -34 13 -39 13 -31 0 3 -5 2 -10 -3 -10 -17 0
-97 -83 -84 -88 7 -2 19 1 26 7 14 12 74 10 94 -3 7 -4 6 7 -3 28 -13 31 -13
35 0 30 19 -8 48 15 41 32 -3 7 0 16 6 20 7 4 8 3 4 -4 -4 -7 -3 -12 3 -12 12
0 99 72 100 83 1 13 -43 6 -70 -11z m21 -22 c-29 -22 -36 -24 -45 -10 -3 6 3
10 14 10 12 0 21 5 21 10 0 6 8 10 18 10 14 0 12 -4 -8 -20z"/>
<path d="M5704 6015 c8 -8 18 -15 22 -15 3 0 1 7 -6 15 -7 8 -17 15 -22 15 -5
0 -3 -7 6 -15z"/>
<path d="M5340 6000 c0 -5 5 -10 11 -10 5 0 7 5 4 10 -3 6 -8 10 -11 10 -2 0
-4 -4 -4 -10z"/>
<path d="M5370 5980 c0 -5 5 -10 11 -10 5 0 7 5 4 10 -3 6 -8 10 -11 10 -2 0
-4 -4 -4 -10z"/>
<path d="M5715 5950 c-3 -5 -1 -10 4 -10 6 0 11 5 11 10 0 6 -2 10 -4 10 -3 0
-8 -4 -11 -10z"/>
<path d="M4596 5725 c-3 -9 0 -15 9 -15 16 0 20 16 6 24 -5 3 -11 -1 -15 -9z"/>
<path d="M4550 5710 c0 -5 7 -10 15 -10 8 0 15 5 15 10 0 6 -7 10 -15 10 -8 0
-15 -4 -15 -10z"/>
<path d="M4490 5690 c-11 -8 -7 -9 15 -4 37 8 45 14 19 14 -10 0 -26 -5 -34
-10z"/>
<path d="M5388 5693 c6 -2 18 -2 25 0 6 3 1 5 -13 5 -14 0 -19 -2 -12 -5z"/>
<path d="M4870 5679 c0 -5 5 -7 10 -4 6 3 10 8 10 11 0 2 -4 4 -10 4 -5 0 -10
-5 -10 -11z"/>
<path d="M4270 5575 c-19 -20 -20 -25 -7 -25 9 0 19 5 22 10 4 6 10 8 15 5 4
-3 6 4 3 15 -7 25 -5 25 -33 -5z"/>
<path d="M4128 5573 c7 -3 16 -2 19 1 4 3 -2 6 -13 5 -11 0 -14 -3 -6 -6z"/>
<path d="M4023 5559 c-38 -11 -42 -28 -11 -55 21 -19 21 -19 16 3 -5 20 -3 22
17 17 18 -4 23 -1 27 20 6 28 1 29 -49 15z"/>
<path d="M4470 5550 c0 -5 7 -10 16 -10 8 0 12 5 9 10 -3 6 -10 10 -16 10 -5
0 -9 -4 -9 -10z"/>
<path d="M4625 5523 c7 -19 15 -64 18 -102 1 -15 13 -31 32 -41 31 -18 32 -20
20 -57 -4 -15 -2 -23 5 -23 6 0 8 -4 5 -10 -3 -5 -1 -10 4 -10 21 0 72 -53 61
-64 -16 -16 -12 -30 5 -16 20 16 19 22 -6 48 -22 25 -56 98 -40 88 5 -4 12 -2
16 4 3 5 0 10 -8 10 -8 0 -17 10 -20 23 -18 82 -39 144 -54 155 -25 18 -47 15
-38 -5z"/>
<path d="M4183 5503 c-35 -8 -63 -19 -63 -23 0 -17 134 12 145 31 8 11 -5 10
-82 -8z"/>
<path d="M4280 5481 c-44 -12 -47 -86 -3 -97 34 -9 103 2 120 19 21 21 1 62
-38 76 -35 12 -42 12 -79 2z"/>
<path d="M5085 5450 c3 -5 8 -10 11 -10 2 0 4 5 4 10 0 6 -5 10 -11 10 -5 0
-7 -4 -4 -10z"/>
<path d="M4014 5408 c-3 -4 -10 -6 -15 -3 -12 8 -97 -43 -109 -65 -13 -24 -13
-50 0 -50 6 0 10 14 10 30 0 48 17 35 23 -17 4 -38 12 -53 37 -74 78 -66 150
-32 150 71 0 21 -4 41 -9 44 -5 3 -8 17 -8 31 0 14 -3 29 -7 32 -9 10 -66 11
-72 1z"/>
<path d="M4168 5412 c-10 -2 -18 -8 -18 -13 0 -11 11 -11 30 1 18 11 11 18
-12 12z"/>
<path d="M4795 5314 c36 -28 61 -36 30 -10 -16 14 -34 26 -40 26 -5 -1 -1 -8
10 -16z"/>
<path d="M3880 5270 c0 -5 5 -10 10 -10 6 0 10 5 10 10 0 6 -4 10 -10 10 -5 0
-10 -4 -10 -10z"/>
<path d="M3707 5263 c-4 -3 -7 -13 -7 -22 1 -13 3 -13 11 2 11 19 8 33 -4 20z"/>
<path d="M3557 5173 c-18 -5 -67 -90 -67 -116 0 -8 -9 -26 -21 -40 -11 -15
-22 -36 -24 -48 -2 -11 -8 -26 -14 -33 -5 -6 -11 -27 -12 -46 -3 -29 -1 -34
14 -32 9 2 17 -2 17 -8 0 -5 -5 -10 -11 -10 -5 0 -7 -4 -4 -10 10 -16 25 -11
25 8 0 18 18 42 32 42 4 0 5 -8 1 -17 -3 -10 -3 -15 2 -11 4 4 14 3 21 -3 17
-14 60 15 81 55 9 16 33 48 55 69 31 31 38 45 34 63 -14 53 -27 76 -56 92 -16
9 -33 25 -36 35 -6 18 -7 18 -37 10z m-47 -207 c0 -11 9 -40 20 -63 14 -33 16
-43 6 -43 -14 0 -46 57 -46 83 0 9 -7 22 -14 30 -13 13 -12 15 10 15 18 0 24
-6 24 -22z m-46 -42 c20 -8 20 -25 0 -50 -15 -18 -15 -18 -10 5 3 14 0 31 -6
38 -12 14 -8 16 16 7z"/>
<path d="M2598 4879 c-21 -17 -50 -57 -68 -94 -27 -55 -38 -68 -75 -84 -24
-10 -66 -37 -95 -60 -58 -46 -66 -48 -99 -24 l-24 16 5 -47 c3 -26 11 -53 18
-59 9 -9 11 -9 8 2 -2 8 8 17 24 21 15 5 39 18 54 29 21 17 41 21 98 21 l71 1
39 48 c22 27 66 66 98 87 55 37 70 54 49 54 -6 0 -13 -4 -16 -10 -3 -5 -14
-10 -23 -10 -10 0 -34 -11 -55 -25 -20 -14 -37 -22 -37 -18 0 5 14 17 32 28
18 10 27 20 20 23 -8 2 -8 9 2 25 15 24 28 107 18 107 -4 -1 -24 -14 -44 -31z"/>
<path d="M2230 4671 c0 -6 4 -13 10 -16 6 -3 7 1 4 9 -7 18 -14 21 -14 7z"/>
<path d="M2480 4576 c0 -2 7 -7 16 -10 8 -3 12 -2 9 4 -6 10 -25 14 -25 6z"/>
<path d="M2415 4561 c-47 -11 -95 -32 -95 -42 0 -5 -8 -9 -19 -9 -10 0 -23 -6
-29 -13 -9 -10 -4 -17 18 -31 34 -19 38 -31 14 -40 -14 -5 -15 -4 -5 8 9 11 7
15 -9 19 -11 3 -23 0 -27 -5 -3 -7 -1 -8 5 -4 7 4 12 1 12 -8 0 -9 -4 -16 -10
-16 -18 0 -11 -20 8 -20 13 -1 11 -4 -8 -15 -24 -14 -23 -14 28 -15 49 0 52 1
52 25 0 14 -5 25 -12 25 -11 0 -2 14 10 16 4 0 14 4 22 7 8 4 36 13 62 21 58
17 138 63 138 78 0 6 -3 9 -6 5 -4 -3 -13 1 -22 9 -10 11 -18 12 -25 5 -14
-14 -57 -14 -57 -1 0 11 0 11 -45 1z m10 -21 c-3 -5 -12 -10 -18 -10 -7 0 -6
4 3 10 19 12 23 12 15 0z m-85 -140 c0 -5 -4 -10 -10 -10 -5 0 -10 5 -10 10 0
6 5 10 10 10 6 0 10 -4 10 -10z"/>
<path d="M3100 4499 c0 -5 5 -7 10 -4 6 3 10 8 10 11 0 2 -4 4 -10 4 -5 0 -10
-5 -10 -11z"/>
<path d="M3070 4490 c0 -5 5 -10 10 -10 6 0 10 5 10 10 0 6 -4 10 -10 10 -5 0
-10 -4 -10 -10z"/>
<path d="M3027 4466 c-16 -12 -16 -14 -2 -20 17 -6 49 17 38 28 -9 9 -16 7
-36 -8z"/>
<path d="M3100 4425 c-11 -13 -10 -14 4 -9 9 3 16 10 16 15 0 13 -6 11 -20 -6z"/>
<path d="M2230 4391 c-6 -17 -9 -34 -6 -39 3 -6 -1 -12 -9 -15 -10 -4 -12 -1
-8 10 4 10 -3 7 -18 -8 -13 -13 -24 -31 -24 -39 0 -8 -21 -26 -47 -40 -49 -26
-88 -67 -153 -159 -27 -39 -32 -52 -19 -46 11 4 48 10 83 14 58 5 64 8 68 30
2 13 12 36 23 51 21 30 109 99 155 123 29 14 85 67 72 67 -3 0 -21 -9 -40 -20
-19 -11 -41 -18 -49 -15 -9 4 -18 -1 -21 -9 -4 -9 -11 -16 -16 -16 -18 0 10
59 31 66 18 5 19 8 6 15 -10 5 -14 18 -10 34 6 34 -3 32 -18 -4z"/>
<path d="M2866 4350 c-61 -39 -53 -51 10 -16 25 14 51 23 56 20 6 -4 9 -1 6 6
-7 23 -22 21 -72 -10z"/>
<path d="M2280 4330 c-8 -5 -12 -11 -9 -14 3 -3 14 1 25 9 21 16 8 20 -16 5z"/>
<path d="M2646 4281 c-4 -5 3 -7 14 -4 23 6 26 13 6 13 -8 0 -17 -4 -20 -9z"/>
<path d="M2730 4060 c0 -5 5 -10 11 -10 5 0 7 5 4 10 -3 6 -8 10 -11 10 -2 0
-4 -4 -4 -10z"/>
<path d="M2315 4030 c-3 -5 -1 -10 4 -10 6 0 11 5 11 10 0 6 -2 10 -4 10 -3 0
-8 -4 -11 -10z"/>
<path d="M3452 4018 c2 -6 15 -15 28 -20 23 -9 23 -8 5 12 -20 22 -39 27 -33
8z"/>
<path d="M4170 4026 c0 -2 7 -7 16 -10 8 -3 12 -2 9 4 -6 10 -25 14 -25 6z"/>
<path d="M1930 4010 c-11 -8 -7 -9 15 -4 37 8 45 14 19 14 -10 0 -26 -5 -34
-10z"/>
<path d="M2400 4010 c0 -5 5 -10 11 -10 5 0 7 5 4 10 -3 6 -8 10 -11 10 -2 0
-4 -4 -4 -10z"/>
<path d="M1860 3999 c0 -5 5 -7 10 -4 6 3 10 8 10 11 0 2 -4 4 -10 4 -5 0 -10
-5 -10 -11z"/>
<path d="M1889 3993 c-13 -16 -12 -17 4 -4 9 7 17 15 17 17 0 8 -8 3 -21 -13z"/>
<path d="M2184 3975 c23 -18 36 -19 36 -4 0 5 -4 7 -10 4 -5 -3 -10 -1 -10 4
0 6 -8 11 -17 11 -16 -1 -16 -2 1 -15z"/>
<path d="M2390 3983 c0 -12 29 -38 53 -46 11 -4 17 -1 17 9 0 9 -5 12 -12 8
-7 -5 -9 -2 -5 8 4 11 0 15 -11 13 -9 -1 -23 2 -29 8 -8 6 -13 6 -13 0z"/>
<path d="M3126 3951 c-22 -9 -14 -16 29 -24 17 -4 24 -4 18 -1 -7 3 -13 12
-13 20 0 15 -6 16 -34 5z"/>
<path d="M3515 3950 c-3 -5 -2 -10 4 -10 5 0 13 5 16 10 3 6 2 10 -4 10 -5 0
-13 -4 -16 -10z"/>
<path d="M2492 3936 c7 -8 15 -12 17 -11 5 6 -10 25 -20 25 -5 0 -4 -6 3 -14z"/>
<path d="M1977 3913 c-4 -3 -7 -11 -7 -17 0 -6 5 -5 12 2 6 6 9 14 7 17 -3 3
-9 2 -12 -2z"/>
<path d="M3235 3910 c3 -5 8 -10 11 -10 2 0 4 5 4 10 0 6 -5 10 -11 10 -5 0
-7 -4 -4 -10z"/>
<path d="M1653 3684 c-16 -17 -16 -21 1 -27 16 -6 28 14 18 30 -5 7 -11 6 -19
-3z"/>
<path d="M1717 3685 c3 -8 9 -12 14 -9 12 7 11 11 -5 17 -10 4 -13 1 -9 -8z"/>
<path d="M1567 3541 c7 -25 19 -27 27 -4 4 10 4 14 0 10 -4 -4 -13 -2 -20 4
-9 8 -11 5 -7 -10z"/>
<path d="M1500 3505 c-24 -25 -39 -45 -33 -45 10 0 83 74 83 85 0 10 -6 5 -50
-40z"/>
<path d="M1330 3442 c-37 -3 -41 -6 -25 -13 17 -8 16 -9 -7 -6 -19 3 -25 0
-21 -10 3 -7 12 -13 20 -13 21 0 7 -38 -26 -66 -18 -15 -30 -19 -38 -12 -14
11 -53 1 -53 -14 0 -6 11 -8 28 -4 15 3 21 3 14 0 -7 -3 -17 -14 -22 -25 -9
-16 -7 -16 25 4 75 46 89 62 94 109 1 4 18 19 38 33 21 14 33 24 28 23 -6 -1
-30 -3 -55 -6z"/>
<path d="M1240 3414 c0 -8 -4 -12 -10 -9 -6 3 -7 -1 -4 -9 8 -20 20 -20 28 0
9 23 7 34 -4 34 -5 0 -10 -7 -10 -16z"/>
<path d="M1345 3400 c-3 -6 1 -7 9 -4 18 7 21 14 7 14 -6 0 -13 -4 -16 -10z"/>
<path d="M1135 3391 c3 -5 1 -12 -5 -16 -5 -3 -10 -11 -10 -18 0 -6 7 -2 15 9
17 23 19 34 4 34 -5 0 -8 -4 -4 -9z"/>
<path d="M1005 3381 c-11 -10 10 -21 40 -21 38 0 65 8 65 20 0 9 -97 9 -105 1z"/>
<path d="M1170 3380 c0 -5 5 -10 10 -10 6 0 10 5 10 10 0 6 -4 10 -10 10 -5 0
-10 -4 -10 -10z"/>
<path d="M1210 3360 c-9 -6 -10 -10 -3 -10 6 0 15 5 18 10 8 12 4 12 -15 0z"/>
<path d="M985 3329 c-4 -12 -2 -26 5 -33 10 -8 11 -8 6 1 -3 6 1 18 9 26 19
19 19 27 1 27 -8 0 -18 -9 -21 -21z"/>
<path d="M1125 3310 c-3 -5 -3 -15 1 -21 6 -11 23 6 24 24 0 10 -18 9 -25 -3z"/>
<path d="M1153 3272 c-9 -15 -7 -18 8 -18 21 0 23 5 11 23 -6 9 -11 8 -19 -5z"/>
<path d="M1100 3260 c0 -5 4 -10 9 -10 6 0 13 5 16 10 3 6 -1 10 -9 10 -9 0
-16 -4 -16 -10z"/>
<path d="M830 2641 c0 -11 26 -22 34 -14 3 3 3 10 0 14 -7 12 -34 11 -34 0z"/>
<path d="M810 2474 c0 -8 5 -12 10 -9 6 4 8 11 5 16 -9 14 -15 11 -15 -7z"/>
</g>
</svg>
